<svg width="1278" height="807" viewBox="0 0 1278 807" fill="none" xmlns="http://www.w3.org/2000/svg">
<path opacity="0.66" d="M804.999 36.2551L846.758 0.736084H1249.81L1277.4 28.3416V251.578L1252.2 276.975V530.025L1277.4 555.422V778.658L1249.81 806.264H846.758L804.999 770.745H473.14L431.381 806.264H28.3295L0.73584 778.658V555.422L25.9381 530.025V276.975L0.73584 251.578V28.3416L28.3295 0.736084H431.381L473.14 36.2551H804.999Z" fill="url(#paint0_linear_17_3)"/>
<path d="M805.264 38.2683C805.679 38.2683 806.081 38.1206 806.397 37.8515L847.665 2.74928H1249.35L1275.92 29.3298V251.121L1251.22 276.007C1250.9 276.334 1250.72 276.777 1250.72 277.239V530.289C1250.72 530.751 1250.9 531.193 1251.22 531.521L1275.92 556.407V778.198L1249.35 804.779H847.665L806.397 769.676C806.081 769.407 805.679 769.259 805.264 769.259H473.404C472.988 769.259 472.587 769.407 472.27 769.676L431.002 804.779H29.3184L2.74928 778.198V556.407L27.4439 531.521C27.769 531.193 27.9515 530.751 27.9515 530.289V277.239C27.9515 276.777 27.769 276.334 27.4439 276.007L2.74928 251.121V29.3298L29.3185 2.74928H431.002L472.27 37.8515C472.587 38.1206 472.988 38.2683 473.404 38.2683H805.264Z" stroke="#8B2AD3" stroke-width="3.49855" stroke-miterlimit="10" stroke-linejoin="round"/>
<path d="M1252.2 276.975V530.025L1264.89 542.908V264.092L1252.2 276.975Z" fill="#8B2AD3"/>
<path d="M13.2451 542.908L25.9382 530.025V276.975L13.2451 264.092V542.908Z" fill="#8B2AD3"/>
<path d="M473.507 36.2552H804.999L819.9 23.3726H458.239L473.507 36.2552Z" fill="#8B2AD3"/>
<path d="M473.139 770.745L458.239 783.627H819.9L804.631 770.745H473.139Z" fill="#8B2AD3"/>
<defs>
<linearGradient id="paint0_linear_17_3" x1="639.065" y1="-387.694" x2="639.065" y2="854.501" gradientUnits="userSpaceOnUse">
<stop stop-color="#260030"/>
<stop offset="1" stop-color="#4904BB" stop-opacity="0.42"/>
</linearGradient>
</defs>
</svg>
