<svg width="584" height="314" viewBox="0 0 584 314" fill="none" xmlns="http://www.w3.org/2000/svg">
<g clip-path="url(#clip0_29_6715)">
<path d="M399.579 10.2358L410.879 0.602051H575.864L583.397 7.97789V97.9932L576.617 104.767V204.567L583.397 211.491V306.022L575.864 313.548H410.879L399.579 303.915H184.421L173.121 313.548H7.98541L0.602539 306.022V211.491L7.38273 204.567V104.767L0.602539 97.9932V7.97789L7.98541 0.602051H173.121L184.421 10.2358H399.579Z" fill="url(#paint0_linear_29_6715)"/>
<path d="M399.579 10.2358L410.879 0.602051H575.864L583.397 7.97789V97.9932L576.617 104.767V204.567L583.397 211.491V306.022L575.864 313.548H410.879L399.579 303.915H184.421L173.121 313.548H7.98541L0.602539 306.022V211.491L7.38273 204.567V104.767L0.602539 97.9932V7.97789L7.98541 0.602051H173.121L184.421 10.2358H399.579Z" stroke="#8B2AD3" stroke-width="2" stroke-miterlimit="10" stroke-linejoin="round"/>
<path d="M576.617 104.767V204.567L579.932 208.029V101.305L576.617 104.767Z" fill="#8B2AD3"/>
<path d="M3.91748 208.029L7.38291 204.567V104.767L3.91748 101.305V208.029Z" fill="#8B2AD3"/>
<path d="M184.421 10.0854H399.579L403.647 6.62329H180.353L184.421 10.0854Z" fill="#8B2AD3"/>
<path d="M184.421 303.915L180.353 307.377H403.647L399.428 303.915H184.421Z" fill="#8B2AD3"/>
</g>
<defs>
<linearGradient id="paint0_linear_29_6715" x1="292" y1="0.602051" x2="292" y2="313.548" gradientUnits="userSpaceOnUse">
<stop/>
<stop offset="1" stop-color="#000352"/>
</linearGradient>
<clipPath id="clip0_29_6715">
<rect width="584" height="314" fill="white"/>
</clipPath>
</defs>
</svg>
