<svg width="144" height="88" viewBox="0 0 144 88" fill="none" xmlns="http://www.w3.org/2000/svg">
<g clip-path="url(#clip0_29_6736)">
<path d="M32.4197 23.2762C53.6956 2.40857 88.2327 2.40857 109.509 23.2762L112.07 25.8069C113.144 26.8441 113.144 28.545 112.07 29.5822L103.312 38.1699C102.775 38.7092 101.907 38.7092 101.37 38.1699L97.8585 34.7265C82.986 20.1648 58.9422 20.1648 44.0698 34.7265L40.3103 38.4188C39.7733 38.9581 38.9057 38.9581 38.3687 38.4188L29.6104 29.8311C28.5363 28.7939 28.5363 27.093 29.6104 26.0558L32.4197 23.2762ZM127.645 41.0324L135.453 48.6659C136.527 49.7031 136.527 51.404 135.453 52.4412L100.296 86.9164C99.2218 87.9536 97.4867 87.9536 96.4539 86.9164L71.5012 62.4394C71.2533 62.1905 70.7989 62.1905 70.551 62.4394L45.5983 86.9164C44.5242 87.9536 42.7891 87.9536 41.7563 86.9164L6.47551 52.4412C5.40139 51.404 5.40139 49.7031 6.47551 48.6659L14.2836 41.0324C15.3577 39.9953 17.0928 39.9953 18.1256 41.0324L43.0783 65.5094C43.3261 65.7583 43.7806 65.7583 44.0285 65.5094L68.9811 41.0324C70.0553 39.9953 71.7904 39.9953 72.8232 41.0324L97.7759 65.5094C98.0237 65.7583 98.4782 65.7583 98.7261 65.5094L123.679 41.0324C124.835 39.9953 126.529 39.9953 127.645 41.0324Z" fill="#006FFF"/>
</g>
<defs>
<clipPath id="clip0_29_6736">
<rect width="143.715" height="87.3207" fill="white"/>
</clipPath>
</defs>
</svg>
