<svg width="220" height="51" viewBox="0 0 220 51" fill="none" xmlns="http://www.w3.org/2000/svg">
<path d="M37.6894 4.51314C34.3738 1.79572 29.8349 0.453003 24.0406 0.453003H9.61922V2.46708H23.7831C28.7082 2.46708 33.1505 3.45814 35.8867 5.82389C38.6229 8.18963 40.6509 11.6423 40.6509 15.9263C40.6509 20.0823 38.8483 23.1194 36.0477 25.4532C33.2471 27.787 28.161 28.81 23.1071 28.81H6.85083V30.8241H23.2358C29.3199 30.8241 34.0841 29.5133 37.5285 26.8918C40.9407 24.2703 42.679 20.5618 42.679 15.7984C42.679 10.939 41.005 7.19858 37.6894 4.51314Z" fill="white"/>
<path d="M36.4659 7.39023C34.4057 5.82372 32.0558 4.5769 25.3601 4.5769H14.2222V6.52705C14.2222 6.52705 19.2117 6.46311 25.1026 6.52705C30.8003 6.59099 32.8927 7.23038 34.8241 8.63704C37.2706 10.4273 38.8158 12.6652 38.8158 15.7662C38.8158 18.7714 37.2706 20.8814 34.792 22.7036C32.2811 24.5579 28.4182 24.5579 26.8409 24.6218C26.2614 24.6218 18.5679 24.6218 18.5679 24.6218V26.572C18.5679 26.572 22.3664 26.6359 24.7485 26.572C30.1565 26.4441 33.3756 26.1244 36.3693 23.9185C39.1699 21.8405 40.6506 19.123 40.6506 15.6703C40.6506 11.1307 38.3329 8.86082 36.4659 7.39023Z" fill="white"/>
<path d="M35.4699 9.97982C33.9247 9.02074 32.5727 8.38135 26.1668 8.38135H18.1513V9.66013H25.9415C31.607 9.66013 33.7316 10.6512 34.4076 11.0668C35.6952 11.8341 37.3691 13.1128 37.3691 15.6704C37.3691 17.3008 36.4034 19.3789 34.9548 20.1781C33.635 20.9134 31.2207 21.5848 27.0037 21.5848H0.86499V22.8636H27.0681C32.1864 22.8636 33.9247 22.2881 35.7274 21.297C37.5301 20.306 38.7533 18.2599 38.7533 15.6704C38.7533 12.7292 37.1116 11.0029 35.4699 9.97982Z" fill="white"/>
<path d="M40.5529 24.1419C37.2373 21.4245 32.6984 20.0818 26.9041 20.0818H17.247V22.0959H26.6144C31.5396 22.0959 35.9819 23.1189 38.7181 25.4527C41.4543 27.7864 43.5145 31.2711 43.5145 35.555C43.5145 39.7111 41.744 42.7482 38.9112 45.082C36.0784 47.4158 31.0245 48.4388 25.9706 48.4388H9.71436V50.4529H26.0994C32.1834 50.4529 36.9476 49.1421 40.392 46.5206C43.8364 43.8991 45.5425 40.1906 45.5425 35.4272C45.5103 30.5998 43.8686 26.8593 40.5529 24.1419Z" fill="white"/>
<path d="M39.3296 27.0193C37.2694 25.4847 34.9195 24.2059 28.2238 24.2059H13.0942V26.1561C13.0942 26.1561 22.0754 26.0921 27.9663 26.1561C33.664 26.22 35.7564 26.8594 37.6878 28.2661C40.1343 30.0564 41.6795 32.2942 41.6795 35.3953C41.6795 38.4004 40.1343 40.5104 37.6557 42.3327C35.1448 44.1869 31.2819 44.1869 29.7046 44.2508C29.1252 44.2508 21.4316 44.2508 21.4316 44.2508V46.201C21.4316 46.201 25.2623 46.2649 27.6122 46.201C33.0202 46.0731 36.2393 45.7534 39.233 43.5475C42.0336 41.4695 43.5143 38.7521 43.5143 35.2994C43.5143 30.7917 41.2288 28.4899 39.3296 27.0193Z" fill="white"/>
<path d="M16.3149 33.6688H30.511V32.5818H16.3149V33.6688Z" fill="white"/>
<path d="M22.1714 37.4733H30.4122V36.5461H22.1714V37.4733Z" fill="white"/>
<path d="M9.71436 33.6688H13.8991V32.5818H9.71436V33.6688Z" fill="white"/>
<path d="M7.07471 37.5369H19.8544V36.45H7.07471V37.5369Z" fill="white"/>
<path d="M10.23 9.56421H15.2195V8.66907H10.23V9.56421Z" fill="white"/>
<path d="M6.7865 16.853H18.1498V15.83H6.7865V16.853Z" fill="white"/>
<path d="M7.07471 46.073H19.0818V44.7942H7.07471V46.073Z" fill="white"/>
<path d="M4.11377 50.3247H7.10749V48.4385H4.11377V50.3247Z" fill="white"/>
<path d="M11.5835 13.6558H30.4472V12.6328H11.5835V13.6558Z" fill="white"/>
<path d="M21.0132 16.853H30.0909V15.83H21.0132V16.853Z" fill="white"/>
<path d="M38.3329 29.8005C36.7878 28.8734 35.4358 28.234 29.0298 28.234H18.8576V29.4808H28.8367C34.5022 29.4808 36.659 30.4399 37.3028 30.8235C38.5582 31.5588 40.2643 32.7737 40.2643 35.2673C40.2643 36.8658 39.2986 38.8479 37.8501 39.6152C36.5302 40.3185 34.1159 40.9579 29.899 40.9579H3.72803V42.2047H29.9312C35.0495 42.2047 36.7878 41.6612 38.5904 40.7021C40.3931 39.743 41.5842 37.7929 41.5842 35.2673C41.6163 32.486 39.9746 30.8235 38.3329 29.8005Z" fill="white"/>
<path d="M65.1799 27.0193V38.4324H71.457C74.1611 38.4324 76.2856 37.9209 77.7664 36.8979C79.215 35.9708 80.0519 34.3723 80.0197 32.6459C80.0197 28.9055 76.8329 27.0193 70.4913 27.0193H65.1799ZM65.1799 13.4322V23.6625H69.9119C72.455 23.6625 74.4186 23.183 75.8672 22.1919C77.2835 21.2968 78.1205 19.6983 78.0561 18.0359C78.0561 14.9668 75.5452 13.4003 70.4913 13.4003L65.1799 13.4322ZM60.5444 41.7892V10.0754H71.779C75.1912 10.0754 77.8952 10.7468 79.891 12.0895C81.8868 13.4322 82.8847 15.1906 82.8847 17.3325C82.9169 19.0589 82.2731 20.7533 81.082 22.0321C79.8588 23.3748 78.2171 24.3019 76.0925 24.8773V24.9732C78.7643 25.229 80.8889 26.0282 82.4662 27.4029C84.0436 28.7137 84.9127 30.6638 84.8483 32.7099C84.8483 35.4273 83.6251 37.6012 81.2108 39.2956C78.7965 40.99 75.7384 41.8212 72.0365 41.8212H60.5444V41.7892Z" fill="white"/>
<path d="M90.0001 41.7892H94.5067V19.1547H90.0001V41.7892ZM92.2856 13.3682C91.5452 13.4002 90.8048 13.1444 90.2254 12.6969C89.6782 12.3132 89.3562 11.6738 89.3884 11.0344C89.3884 10.3631 89.7103 9.72369 90.2254 9.34006C90.8048 8.89248 91.5452 8.63673 92.2856 8.6687C93.0582 8.63673 93.7985 8.89248 94.378 9.34006C95.3115 10.0114 95.5046 11.2902 94.8608 12.2173C94.7321 12.4091 94.5711 12.569 94.378 12.6969C93.7985 13.1764 93.0582 13.4002 92.2856 13.3682Z" fill="white"/>
<path d="M114.431 41.5657C113.369 42.0452 111.953 42.269 110.214 42.269C105.289 42.269 102.811 40.0631 102.811 35.6193V22.2241H97.9819V19.123H102.811V13.5923L107.317 12.4094V19.123H114.399V22.2241H107.317V34.9799C107.317 36.4825 107.639 37.5695 108.283 38.2408C108.927 38.9122 109.989 39.1999 111.47 39.1999C112.5 39.2319 113.53 38.9761 114.399 38.4326L114.431 41.5657Z" fill="white"/>
<path d="M155.409 41.789H151.192V22.2237C151.225 20.3375 151.321 18.4193 151.546 16.5331H151.45C151.192 17.4922 150.806 18.4513 150.355 19.3464L137.962 41.7571H135.87L123.508 19.5063C123.026 18.5472 122.672 17.5561 122.414 16.5011H122.317C122.478 18.3873 122.543 20.3055 122.511 22.2237V41.7571H118.422V12.6008H124.056L135.194 32.9335C135.837 34.0524 136.417 35.2353 136.868 36.4501H137.029C137.769 34.8516 138.348 33.6688 138.767 32.8695L150.13 12.6008H155.442V41.789" fill="white"/>
<path d="M178.329 30.3122L171.537 31.0795C169.445 31.3032 167.867 31.7188 166.805 32.3263C165.743 32.9337 165.195 33.9887 165.195 35.4912C165.195 36.5782 165.743 37.6012 166.676 38.2087C167.642 38.912 168.962 39.2637 170.603 39.2637C172.857 39.2637 174.692 38.6243 176.14 37.3775C177.557 36.1946 178.361 34.4363 178.329 32.582V30.3122ZM182.836 41.7892H178.329V38.2406H178.233C176.269 40.958 173.372 42.3008 169.573 42.3008C166.773 42.3008 164.584 41.6933 162.974 40.5105C161.429 39.4235 160.56 37.6332 160.592 35.747C160.592 31.527 163.682 29.0654 169.895 28.362L178.329 27.403C178.329 23.5666 176.398 21.6484 172.535 21.6484C169.251 21.6165 166.065 22.5756 163.361 24.4298V20.7213C166.129 19.3147 169.316 18.6113 172.921 18.6113C179.552 18.6113 182.836 21.4246 182.836 27.0513V41.7892Z" fill="white"/>
<path d="M203.76 22.7992C202.955 22.3197 201.828 22.0639 200.348 22.0639C198.48 22.032 196.71 22.8312 195.519 24.2698C194.231 25.7404 193.587 27.7225 193.587 30.2481V41.7891H189.081V19.1547H193.587V23.8222H193.684C194.263 22.3197 195.294 21.0089 196.646 20.0818C197.933 19.1867 199.478 18.7391 201.088 18.7391C201.989 18.7071 202.923 18.803 203.792 19.0588L203.76 22.7992Z" fill="white"/>
<path d="M219.468 41.5657C218.406 42.0452 216.99 42.269 215.251 42.269C210.326 42.269 207.848 40.0631 207.848 35.6193V22.2241H203.019V19.123H207.848V13.5923L212.354 12.4094V19.123H219.436V22.2241H212.354V34.9799C212.354 36.4825 212.676 37.5695 213.32 38.2408C213.964 38.9122 215.026 39.1999 216.507 39.1999C217.537 39.2319 218.567 38.9761 219.436 38.4326L219.468 41.5657Z" fill="white"/>
</svg>
