<svg width="444" height="109" viewBox="0 0 444 109" fill="none" xmlns="http://www.w3.org/2000/svg">
<path d="M108 2V82.2805C98.2629 91.9257 92.8113 97.3259 83.0743 107H2V26.7195C11.7371 17.0454 17.1887 11.6452 26.9257 2H108Z" fill="#8B2AD3" fill-opacity="0.4" stroke="#8B2AD3" stroke-width="4" stroke-miterlimit="10"/>
<g clip-path="url(#clip0_184_24)">
<path d="M72.4432 29.0051C68.4417 25.6814 62.964 24.0391 55.9712 24.0391H38.5669V26.5025H55.6604C61.6043 26.5025 66.9655 27.7147 70.2676 30.6083C73.5698 33.5019 76.0173 37.725 76.0173 42.9647C76.0173 48.048 73.8417 51.7628 70.4619 54.6173C67.082 57.4717 60.9439 58.723 54.8446 58.723H35.2259V61.1865H55C62.3424 61.1865 68.0921 59.5833 72.2489 56.3769C76.3669 53.1705 78.4647 48.6346 78.4647 42.8083C78.4647 36.8647 76.4446 32.2897 72.4432 29.0051Z" fill="#8B2AD3"/>
<path d="M70.9669 32.5243C68.4806 30.6083 65.6446 29.0833 57.564 29.0833H44.1223V31.4685C44.1223 31.4685 50.1439 31.3903 57.2532 31.4685C64.1295 31.5467 66.6547 32.3288 68.9856 34.0493C71.9381 36.239 73.8029 38.9762 73.8029 42.7691C73.8029 46.4448 71.9381 49.0256 68.9468 51.2544C65.9165 53.5224 61.2547 53.5224 59.3511 53.6006C58.6518 53.6006 49.3669 53.6006 49.3669 53.6006V55.9858C49.3669 55.9858 53.9511 56.064 56.8259 55.9858C63.3525 55.8294 67.2374 55.4384 70.8504 52.7403C74.2302 50.1986 76.0173 46.8749 76.0173 42.6518C76.0173 37.0993 73.2201 34.323 70.9669 32.5243Z" fill="#8B2AD3"/>
<path d="M69.7626 35.6917C67.8978 34.5186 66.2662 33.7366 58.5353 33.7366H48.8619V35.3007H58.2633C65.1007 35.3007 67.6647 36.5129 68.4806 37.0212C70.0345 37.9597 72.0547 39.5238 72.0547 42.652C72.0547 44.6462 70.8892 47.1879 69.141 48.1654C67.5482 49.0648 64.6345 49.8859 59.5453 49.8859H28V51.45H59.623C65.8 51.45 67.8978 50.7462 70.0734 49.534C72.2489 48.3218 73.7252 45.8193 73.7252 42.652C73.7252 39.0545 71.7439 36.943 69.7626 35.6917Z" fill="#8B2AD3"/>
<path d="M75.9007 53.0141C71.8993 49.6904 66.4216 48.0481 59.4288 48.0481H47.7741V50.5116H59.0791C65.023 50.5116 70.3842 51.7628 73.6863 54.6173C76.9885 57.4718 79.4748 61.734 79.4748 66.9737C79.4748 72.0571 77.3381 75.7718 73.9194 78.6263C70.5007 81.4808 64.4014 82.7321 58.3022 82.7321H38.6835V85.1955H58.4576C65.8 85.1955 71.5496 83.5923 75.7065 80.3859C79.8633 77.1795 81.9223 72.6436 81.9223 66.8173C81.8835 60.9128 79.9022 56.3378 75.9007 53.0141Z" fill="#8B2AD3"/>
<path d="M74.4245 56.5333C71.9381 54.6564 69.1022 53.0923 61.0216 53.0923H42.7626V55.4775C42.7626 55.4775 53.6014 55.3993 60.7108 55.4775C67.587 55.5557 70.1122 56.3378 72.4432 58.0583C75.3957 60.2481 77.2604 62.9852 77.2604 66.7782C77.2604 70.4538 75.3957 73.0346 72.4043 75.2634C69.3741 77.5314 64.7122 77.5314 62.8086 77.6096C62.1094 77.6096 52.8245 77.6096 52.8245 77.6096V79.9949C52.8245 79.9949 57.4475 80.0731 60.2835 79.9949C66.8101 79.8384 70.695 79.4474 74.3079 76.7493C77.6878 74.2077 79.4748 70.884 79.4748 66.6609C79.4748 61.1474 76.7165 58.332 74.4245 56.5333Z" fill="#8B2AD3"/>
<path d="M46.6475 64.6666H63.7799V63.3372H46.6475V64.6666Z" fill="#8B2AD3"/>
<path d="M53.718 69.3198H63.6633V68.1858H53.718V69.3198Z" fill="#8B2AD3"/>
<path d="M38.6835 64.6666H43.7338V63.3372H38.6835V64.6666Z" fill="#8B2AD3"/>
<path d="M35.4979 69.3981H50.9209V68.0686H35.4979V69.3981Z" fill="#8B2AD3"/>
<path d="M39.305 35.1833H45.3266V34.0884H39.305V35.1833Z" fill="#8B2AD3"/>
<path d="M35.1482 44.0987H48.8619V42.8474H35.1482V44.0987Z" fill="#8B2AD3"/>
<path d="M35.4979 79.8385H49.9885V78.2744H35.4979V79.8385Z" fill="#8B2AD3"/>
<path d="M31.9237 85.039H35.5367V82.7319H31.9237V85.039Z" fill="#8B2AD3"/>
<path d="M40.9367 40.1885H63.7022V38.9373H40.9367V40.1885Z" fill="#8B2AD3"/>
<path d="M52.3194 44.0987H63.2748V42.8474H52.3194V44.0987Z" fill="#8B2AD3"/>
<path d="M73.2202 59.9353C71.3554 58.8013 69.7238 58.0193 61.9928 58.0193H49.7166V59.5443H61.7597C68.5971 59.5443 71.2 60.7174 71.977 61.1866C73.4921 62.086 75.5511 63.5719 75.5511 66.6219C75.5511 68.577 74.3856 71.0013 72.6374 71.9398C71.0446 72.8001 68.1309 73.5821 63.0417 73.5821H31.4576V75.1071H63.0806C69.2576 75.1071 71.3554 74.4424 73.5309 73.2693C75.7065 72.0962 77.1439 69.711 77.1439 66.6219C77.1827 63.2199 75.2014 61.1866 73.2202 59.9353Z" fill="#8B2AD3"/>
</g>
<path d="M107.828 67.4053H145.336L155.769 77.7968H408.573L443.545 42.9644" stroke="#8B2AD3" stroke-width="4" stroke-miterlimit="10"/>
<path d="M72 2L61.7639 12.2594H32.2734L9.24938 35.3649V75.7632L2 83V26.8784C11.6852 17.1421 17.1077 11.7072 26.7929 2H72Z" fill="#8B2AD3"/>
<path d="M377.305 77.9909L383.643 71.6784H401.844L426.676 46.946H439.547L408.572 77.7967H378.67L377.305 77.9909Z" fill="#8B2AD3"/>
<defs>
<clipPath id="clip0_184_24">
<rect width="54" height="61" fill="white" transform="translate(28 24)"/>
</clipPath>
</defs>
</svg>
