<svg width="48" height="45" viewBox="0 0 48 45" fill="none" xmlns="http://www.w3.org/2000/svg">
<g clip-path="url(#clip0_5_18553)">
<path d="M3.4483 3.06836V30.9511L14.483 41.9858H44.5727V3.06836H3.4483Z" fill="#060606"/>
<path d="M47.8562 45H13.0835L0.164856 32.0813V0H47.8562V45ZM13.2988 44.5693H47.4256V0.430622H0.595477V31.866L13.2988 44.5693Z" fill="#060606"/>
<path d="M29.7701 18.2426H25.7413V15.6633C25.7413 14.711 26.3924 14.4729 26.8401 14.4729C27.2877 14.4729 29.6887 14.4729 29.6887 14.4729V10.2271H25.782C21.4684 10.2271 20.451 13.4015 20.451 15.4252V18.2426H17.928V22.6074H20.451C20.451 28.2024 20.451 34.9878 20.451 34.9878H25.7006C25.7006 34.9878 25.7006 28.1627 25.7006 22.6074H29.241L29.7701 18.2426Z" fill="#8B2AD3"/>
</g>
<defs>
<clipPath id="clip0_5_18553">
<rect width="47.6913" height="44.9999" fill="white" transform="translate(0.164856)"/>
</clipPath>
</defs>
</svg>
