<svg width="48" height="45" viewBox="0 0 48 45" fill="none" xmlns="http://www.w3.org/2000/svg">
<g clip-path="url(#clip0_5_18545)">
<path d="M3.39337 3.06836V30.9511L14.428 41.9858H44.5177V3.06836H3.39337Z" fill="#060606"/>
<path d="M47.8013 45H13.0286L0.109924 32.0813V0H47.8013V45ZM13.2439 44.5693H47.3706V0.430622H0.540546V31.866L13.2439 44.5693Z" fill="#060606"/>
<path fill-rule="evenodd" clip-rule="evenodd" d="M19.2814 29.2479C19.3751 28.7371 19.2814 28.9286 19.6873 28.7371C20.3119 28.8328 20.5929 29.2479 21.5297 29.5671C22.8413 30.0779 25.0896 29.9821 26.4324 29.3436C27.338 29.0244 27.5566 28.2901 28.2748 29.0244C27.6503 31.5465 20.4056 31.4188 19.2814 29.2479ZM32.4592 11.9126C34.489 11.1783 35.2072 14.307 33.4897 14.8497C31.5536 15.4563 30.4295 12.6469 32.4592 11.9126ZM24.4963 17.4356L25.9328 12.3276L30.3358 13.2535C30.5544 13.892 30.6481 15.5521 32.5841 15.8713C34.0206 16.1906 35.1448 15.137 35.3321 14.0835C36.144 11.1464 32.2719 9.29478 30.6481 12.2957L25.3394 11.2422L23.4034 17.3079C20.9677 17.5314 18.407 17.9464 16.2524 19.0957C15.0345 19.9258 15.7527 19.6065 14.5036 19.0957C12.6612 18.3615 11.1311 19.6065 10.6315 20.7558C9.81957 22.6394 10.8501 23.7887 11.7557 24.7145C11.662 31.4826 18.5944 34.0047 24.2153 33.9089C27.3692 33.8131 30.3358 32.8554 32.4905 31.2911C36.8935 27.9389 35.3633 25.4488 35.9567 24.523C35.9567 24.523 38.3924 22.4479 36.5812 20.1493C36.0816 19.5108 35.0511 18.8084 33.7083 19C31.7722 19.2234 33.2087 20.1493 30.9603 19C29.6176 18.2976 26.245 17.1483 24.4963 17.4356ZM27.4629 22.3521C29.4927 21.7136 30.6168 25.0657 28.5871 25.8958C26.5573 26.63 25.0272 23.9164 26.8384 22.6713C27.0569 22.5756 27.2443 22.4479 27.4629 22.3521ZM19.094 22.4479C21.3424 21.522 22.4666 24.938 20.5305 25.8C19.3126 26.3108 18.3758 25.7042 18.0948 24.8742C17.5639 23.5972 18.2821 22.7671 19.094 22.4479ZM33.0838 20.277C34.5202 18.9361 37.6742 21.4263 35.5195 23.6291C35.2072 23.3098 34.8013 22.384 34.3953 21.7455C33.9894 21.2986 33.2711 20.5643 33.0838 20.277ZM11.943 23.5972C10.1006 21.8094 12.349 18.9042 14.5036 20.245L13.0672 21.8094C12.4739 22.5756 12.349 23.1821 11.943 23.5972Z" fill="#8B2AD3"/>
</g>
<defs>
<clipPath id="clip0_5_18545">
<rect width="47.6913" height="44.9999" fill="white" transform="translate(0.109924)"/>
</clipPath>
</defs>
</svg>
