<svg width="48" height="45" viewBox="0 0 48 45" fill="none" xmlns="http://www.w3.org/2000/svg">
<g clip-path="url(#clip0_5_18537)">
<path d="M3.33838 3.06836V30.9511L14.3731 41.9858H44.4627V3.06836H3.33838Z" fill="#060606"/>
<path d="M47.7463 45H12.9736L0.0549316 32.0813V0H47.7463V45ZM13.1889 44.5693H47.3156V0.430622H0.485553V31.866L13.1889 44.5693Z" fill="#060606"/>
<path d="M34.541 11.9318L11.8861 21.0372C11.1573 21.332 11.189 22.4129 11.9495 22.6421L17.7162 24.4108L19.8707 31.4528C20.0925 32.2061 21.0114 32.4026 21.5184 31.8458L24.4968 28.7015L30.3268 33.1232C31.0556 33.68 32.0695 33.2542 32.2279 32.3699L36.0935 13.2419C36.2836 12.3576 35.3965 11.5715 34.541 11.9318ZM31.6893 16.157L21.1698 25.7864C21.0748 25.8847 21.0114 26.0157 20.9797 26.1467L20.5678 29.8806C20.5361 30.0116 20.3777 30.0116 20.346 29.9134L18.6667 24.3453C18.6033 24.0833 18.6984 23.8213 18.9202 23.6902L31.3408 15.7312C31.6576 15.5347 31.9428 15.9277 31.6893 16.157Z" fill="#8B2AD3"/>
</g>
<defs>
<clipPath id="clip0_5_18537">
<rect width="47.6913" height="44.9999" fill="white" transform="translate(0.0549316)"/>
</clipPath>
</defs>
</svg>
