<svg width="48" height="45" viewBox="0 0 48 45" fill="none" xmlns="http://www.w3.org/2000/svg">
<g clip-path="url(#clip0_5_18530)">
<path d="M3.28345 3.06836V30.9511L14.3181 41.9858H44.4078V3.06836H3.28345Z" fill="#060606"/>
<path d="M47.6913 45H12.9186L0 32.0813V0H47.6913V45ZM13.134 44.5693H47.2607V0.430622H0.430621V31.866L13.134 44.5693Z" fill="#060606"/>
<path d="M37.6793 13.7829C36.7141 14.2015 35.7166 14.4913 34.6226 14.6201C35.7166 13.9761 36.5532 12.9136 36.9393 11.6901C35.9097 12.3018 34.7835 12.7526 33.5608 12.978C32.5955 11.9477 31.212 11.3037 29.6997 11.3037C26.7717 11.3037 24.3907 13.6863 24.3907 16.6163C24.3907 17.0349 24.4228 17.4212 24.5194 17.8398C20.1113 17.6144 16.218 15.5216 13.6117 12.3018C13.1613 13.0746 12.9038 14.0083 12.9038 14.9742C12.9038 16.8095 13.837 18.4516 15.2527 19.3853C14.3839 19.3531 13.5795 19.1277 12.8395 18.7091C12.8395 18.7413 12.8395 18.7413 12.8395 18.7735C12.8395 21.3493 14.6735 23.4744 17.0867 23.9573C16.6363 24.0861 16.1858 24.1505 15.7032 24.1505C15.3492 24.1505 15.0275 24.1183 14.7057 24.0539C15.3814 26.1468 17.3441 27.6923 19.6608 27.7245C17.8589 29.1411 15.5745 29.9783 13.0969 29.9783C12.6786 29.9783 12.2603 29.9461 11.842 29.9139C14.1909 31.4272 16.958 32.2965 19.9504 32.2965C29.6997 32.2965 35.0087 24.2149 35.0087 17.2281C35.0087 17.0027 35.0087 16.7773 35.0087 16.5519C36.0705 15.7792 36.9715 14.8454 37.6793 13.7829Z" fill="#8B2AD3"/>
</g>
<defs>
<clipPath id="clip0_5_18530">
<rect width="47.6913" height="44.9999" fill="white"/>
</clipPath>
</defs>
</svg>
