<svg width="39" height="36" viewBox="0 0 39 36" fill="none" xmlns="http://www.w3.org/2000/svg">
<g clip-path="url(#clip0_36_27218)">
<path d="M3.33594 2.45435V24.7572L12.1624 33.5836H36.2305V2.45435H3.33594Z" fill="white"/>
<path d="M38.8563 35.9946H11.0424L0.708984 25.6612V0H38.8563V35.9946ZM11.2146 35.6501H38.5119V0.344446H1.05343V25.489L11.2146 35.6501Z" fill="white"/>
<path d="M24.3892 14.5921H21.1667V12.529C21.1667 11.7673 21.6875 11.5768 22.0456 11.5768C22.4036 11.5768 24.3241 11.5768 24.3241 11.5768V8.18066H21.1993C17.7489 8.18066 16.9351 10.7198 16.9351 12.3386V14.5921H14.917V18.0835H16.9351C16.9351 22.5588 16.9351 27.9863 16.9351 27.9863H21.1342C21.1342 27.9863 21.1342 22.527 21.1342 18.0835H23.9661L24.3892 14.5921Z" fill="black"/>
</g>
<defs>
<clipPath id="clip0_36_27218">
<rect width="38.1473" height="35.9946" fill="white" transform="translate(0.708984)"/>
</clipPath>
</defs>
</svg>
