<svg width="121" height="123" viewBox="0 0 121 123" fill="none" xmlns="http://www.w3.org/2000/svg">
<path d="M113 8V88.2805C103.263 97.9257 97.8113 103.326 88.0743 113H7V32.7195C16.7371 23.0454 22.1887 17.6452 31.9257 8H113Z" fill="#8B2AD3" fill-opacity="0.4" stroke="#8B2AD3" stroke-width="4" stroke-miterlimit="10"/>
<path d="M52.2089 63.9405L51.5854 63.3216C51.1133 62.8567 50.3022 63.1859 50.3022 63.8451V72.6842C50.3022 73.0924 50.6419 73.4246 51.057 73.4246H60.0235C60.692 73.4246 61.0285 72.6261 60.5532 72.1619C60.26 71.8729 60.26 71.4048 60.5532 71.1164L70.09 61.6839C70.3838 61.3965 70.3838 60.9286 70.09 60.6383L69.2211 59.7847C68.749 59.3197 69.0855 58.5212 69.7521 58.5212H78.7132C79.1276 58.5212 79.4667 58.8529 79.4667 59.2615V68.0998C79.4667 68.759 78.6541 69.089 78.181 68.6234L77.5769 68.0281C77.2819 67.7309 76.8073 67.7309 76.5185 68.0281L60.4395 83.8748C60.1477 84.1632 59.6738 84.1632 59.378 83.8748L39.7065 64.478C39.4108 64.1864 39.4108 63.7177 39.7065 63.4281L66.9386 36.5776C67.2311 36.2886 67.2311 35.8169 66.9386 35.5292L60.5352 29.2158C60.242 28.9281 59.7674 28.9281 59.4729 29.2158L24.2189 63.9785C23.927 64.2676 23.927 64.7392 24.2189 65.0269L59.4693 99.7845C59.7625 100.072 60.241 100.072 60.5329 99.7845L95.7815 65.0269C96.0728 64.7379 96.0728 64.2688 95.7815 63.9808L75.0433 43.5322C74.7533 43.2444 74.2761 43.2444 73.9824 43.5322L53.2761 63.9407C52.9804 64.2323 52.5047 64.2323 52.2089 63.9407V63.9405Z" fill="white"/>
<path d="M77 8L66.7639 18.2594H37.2734L14.2494 41.3649V81.7632L7 89V32.8784C16.6852 23.1421 22.1077 17.7072 31.7929 8H77Z" fill="#8B2AD3"/>
</svg>
