<svg width="268" height="45" viewBox="0 0 268 45" fill="none" xmlns="http://www.w3.org/2000/svg">
<path opacity="0.5" d="M56.8806 28.6965L46.2086 10.1225C43.8524 6.26167 38.1699 6.1921 35.9177 10.2965L24.6913 29.6356C22.6123 33.1834 25.1764 37.6356 29.369 37.6356H51.8218C56.049 37.6356 59.2021 33.0443 56.8806 28.6965Z" fill="white"/>
<path d="M41.4609 30.1573L40.8026 29.0094C40.1789 27.9312 38.8276 25.6355 38.8276 25.6355L29.7841 9.87897C27.9823 7.13114 24.3095 6.4007 21.5721 8.2094C20.7059 8.76592 20.0129 9.56592 19.5625 10.5051L9.0637 28.7659C7.43518 31.5833 8.40536 35.2007 11.2466 36.8355C12.1475 37.3573 13.1523 37.6355 14.1918 37.6355H51.7172C45.9307 37.6703 44.0943 34.6442 41.4609 30.1573Z" fill="white"/>
<path d="M41.4607 30.1573L40.8024 29.0094C40.1787 27.9312 38.8274 25.6355 38.8274 25.6355L33.0063 15.3398L24.6211 29.6703C22.5421 33.2181 25.1062 37.6703 29.2988 37.6703H51.717C45.8959 37.6355 44.0941 34.6442 41.4607 30.1573Z" fill="url(#paint0_linear_514_21418)"/>
<path d="M258.263 36.1747C256.981 36.2095 255.734 35.8965 254.66 35.2704C253.724 34.6791 253.17 33.6356 253.239 32.5225V14.5399H255.63C256.496 14.5399 257.224 15.2704 257.224 16.1399V31.966C257.258 32.4878 257.466 32.9747 257.847 33.3573C258.229 33.7399 258.748 33.9486 259.268 33.9486H259.719C259.892 33.9486 260.065 34.0878 260.065 34.2965V36.2443L258.263 36.1747Z" fill="white"/>
<path d="M206.947 36.1747C204.487 36.1747 202.477 35.5138 200.952 34.1921C200.225 33.6008 199.67 32.8355 199.324 31.966C198.977 31.1312 198.839 29.9486 198.839 28.3486C198.839 26.7486 199.012 25.5312 199.324 24.7312C199.67 23.8964 200.225 23.166 200.918 22.5747C202.442 21.2529 204.452 20.592 206.912 20.592C209.372 20.592 211.382 21.2529 212.906 22.5747C213.599 23.1312 214.154 23.8964 214.5 24.7312C214.881 25.9138 215.055 27.1312 214.985 28.3834C214.985 29.9834 214.812 31.2007 214.5 32.0007C214.154 32.8703 213.599 33.6355 212.872 34.2268C211.451 35.5138 209.407 36.1747 206.947 36.1747ZM206.947 22.8877C204.244 22.8877 202.893 24.7312 202.893 28.4181C202.893 32.1051 204.244 33.9834 206.947 33.9834C209.649 33.9834 211.001 32.1399 211.001 28.4529C211.001 24.766 209.615 22.8877 206.947 22.8877Z" fill="white"/>
<path d="M223.96 36.1747C221.916 36.2095 219.906 35.6182 218.174 34.4704C217.896 34.2269 217.585 34.0182 217.273 33.8443C217.169 33.7747 217.099 33.6704 217.099 33.566V14.5399H219.525C220.391 14.5399 221.119 15.2704 221.119 16.1399V21.7051L221.846 21.2878C222.713 20.8356 223.856 20.6269 225.346 20.6269C227.945 20.6269 229.92 21.4269 231.202 22.9225C232.345 24.2791 232.934 26.0878 232.934 28.3138C232.934 30.5399 232.276 32.3486 230.959 33.6704C229.469 35.3747 227.079 36.1747 223.96 36.1747ZM224.341 22.8878C223.44 22.8878 222.401 23.2356 221.257 23.9312L221.084 24.0008V32.9399L221.257 33.0791C222.193 33.6704 223.232 33.9486 224.341 33.9486C225.727 33.9834 227.044 33.2878 227.737 32.1052C228.43 30.9921 228.811 29.7052 228.776 28.3834C228.776 24.7312 227.286 22.8878 224.341 22.8878Z" fill="white"/>
<path d="M242.429 36.14C237.924 36.14 235.083 33.1835 235.083 28.3487C235.083 23.5139 237.855 20.5922 242.359 20.5922C243.918 20.5574 245.478 21.0096 246.76 21.9139L247.002 22.0879V20.9052H250.155C250.329 20.9052 250.467 21.0444 250.467 21.2183V35.8618H246.933V34.54L246.69 34.7487C245.72 35.6531 244.161 36.14 242.429 36.14ZM243.226 23.2357C240.384 23.2357 238.721 25.427 238.721 28.3487C238.721 31.2705 240.419 33.5313 243.226 33.5313C244.126 33.5313 245.686 33.4618 246.933 32.2096L246.968 32.1748V24.6618L246.933 24.627C246.101 23.6531 244.819 23.2357 243.226 23.2357Z" fill="white"/>
<path d="M96.5887 36.0008V14.5399H114.364V15.8964C114.364 16.9747 113.498 17.8443 112.424 17.8443H100.989V23.5834H112.424V26.8878H100.989V32.6617H112.424C113.498 32.6617 114.364 33.5312 114.364 34.6095V35.966L96.5887 36.0008Z" fill="white"/>
<path d="M139.866 14.5051H135.674C134.911 14.5051 134.184 14.853 133.699 15.4443L128.675 21.8443L123.616 15.479C123.131 14.8877 122.403 14.5399 121.641 14.5399H117.448L125.937 25.253L117.448 35.966H121.641C122.403 35.966 123.131 35.6182 123.616 35.0269L128.675 28.6964L133.768 35.0965C134.253 35.6878 134.981 36.0356 135.743 36.0356H139.936L131.412 25.3225L139.866 14.5051Z" fill="white"/>
<path d="M82.6595 33.7053L88.4806 23.4792V35.9314H92.9157V14.4705H90.1784C89.3122 14.4705 88.5153 14.9227 88.0995 15.6879L81.1349 28.4531L74.1704 15.6879C73.7546 14.9227 72.9577 14.4357 72.0914 14.4705H69.3195V35.9314H73.7546V23.4792L79.5757 33.7053H82.6595Z" fill="white"/>
<path d="M151.439 36.2444C145.375 36.3835 140.351 31.5487 140.247 25.4617C140.247 25.3922 140.247 25.3574 140.247 25.2878C140.247 21.9139 141.286 19.0965 143.192 17.1835C145.098 15.2704 147.904 14.2617 151.231 14.2617C155.146 14.2617 158.195 15.6182 160.413 18.2617L159.027 19.4443C158.161 20.1748 156.879 20.2096 155.943 19.5139C154.626 18.54 153.032 18.053 151.404 18.1226C147.038 18.1226 144.474 20.7661 144.474 25.2183C144.474 29.6704 147.142 32.4878 151.404 32.4878C153.032 32.5226 154.626 32.0357 155.943 31.0965C156.879 30.4009 158.126 30.4357 159.027 31.1661L160.413 32.3487C158.23 34.9226 155.25 36.2444 151.439 36.2444Z" fill="white"/>
<path d="M178.743 36.2096C171.848 36.2096 167.586 32.0009 167.586 25.253C167.586 18.5052 171.848 14.2965 178.674 14.2965C181.965 14.2965 184.703 15.2356 186.851 17.1835L185.811 18.3313C185.084 19.1313 183.94 19.34 182.97 18.853C181.619 18.1922 180.164 17.8443 178.674 17.8443C174.239 17.8443 171.501 20.6965 171.501 25.253C171.501 29.8096 174.377 32.6965 178.985 32.6965C181.203 32.6965 182.936 32.2791 184.183 31.3748L184.252 31.34V26.9226H179.367V25.4965C179.367 24.4183 180.233 23.5487 181.307 23.5487H187.336C187.509 23.5487 187.682 23.6878 187.682 23.8965V33.427C185.569 35.2705 182.554 36.2096 178.743 36.2096Z" fill="white"/>
<path d="M195.582 36.1747C194.3 36.2095 193.052 35.8965 191.978 35.2704C191.043 34.6791 190.488 33.6356 190.523 32.5225V14.5399H192.914C193.815 14.5399 194.508 15.2704 194.508 16.1399V31.966C194.542 32.4878 194.75 32.9747 195.131 33.3573C195.512 33.7399 196.032 33.9486 196.552 33.9486H197.002C197.176 33.9486 197.349 34.0878 197.349 34.2965V36.2443L195.582 36.1747Z" fill="white"/>
<defs>
<linearGradient id="paint0_linear_514_21418" x1="21.6604" y1="23.1727" x2="47.6263" y2="32.7288" gradientUnits="userSpaceOnUse">
<stop stop-color="white" stop-opacity="0"/>
<stop offset="1" stop-color="white"/>
</linearGradient>
</defs>
</svg>
