<svg width="121" height="123" viewBox="0 0 121 123" fill="none" xmlns="http://www.w3.org/2000/svg">
<path d="M113 8V88.2805C103.263 97.9257 97.8113 103.326 88.0743 113H7V32.7195C16.7371 23.0454 22.1887 17.6452 31.9257 8H113Z" fill="#8B2AD3" fill-opacity="0.4" stroke="#8B2AD3" stroke-width="4" stroke-miterlimit="10"/>
<path d="M77 8L66.7639 18.2594H37.2734L14.2494 41.3649V81.7632L7 89V32.8784C16.6852 23.1421 22.1077 17.7072 31.7929 8H77Z" fill="#8B2AD3"/>
<g clip-path="url(#clip0_0_4)">
<path d="M37.3869 33.4041C40.3607 33.4041 42.7763 35.8424 42.7763 38.8442V81.1189C42.7763 84.1207 40.3607 86.5591 37.3869 86.5591C34.4132 86.5591 31.9976 84.1207 31.9976 81.1189V38.8442C32.0067 35.8424 34.4132 33.4041 37.3869 33.4041Z" fill="white"/>
<path d="M72.1844 30.1158C74.2798 32.2493 74.2615 35.6945 72.1478 37.8004L42.3737 67.5414C40.2601 69.6565 36.8471 69.638 34.7609 67.5044C32.6656 65.3708 32.6839 61.9257 34.7975 59.8198L64.5716 30.088C66.6853 27.9637 70.0982 27.9822 72.1844 30.1158Z" fill="white"/>
<path d="M72.1844 89.8101C74.2798 87.6765 74.2615 84.2313 72.1478 82.1254L42.3737 52.3937C40.2601 50.2786 36.8471 50.2971 34.7609 52.4307C32.6656 54.5642 32.6839 58.0094 34.7975 60.1153L64.5716 89.847C66.6853 91.9714 70.0982 91.9529 72.1844 89.8101Z" fill="white"/>
<path d="M88.4257 66.9872C90.521 69.1208 90.5119 72.566 88.4074 74.6811L72.7426 90.4198C70.6289 92.5349 67.216 92.5257 65.1206 90.4013C63.0253 88.2677 63.0344 84.8226 65.1389 82.7075L80.8037 66.9688C82.9082 64.8536 86.3212 64.8629 88.4257 66.9872Z" fill="white"/>
<path d="M88.4257 53.0127C90.521 50.8791 90.5119 47.4339 88.4074 45.3188L72.7426 29.5801C70.6289 27.465 67.216 27.4742 65.1206 29.5986C63.0253 31.7322 63.0344 35.1773 65.1389 37.2924L80.8037 53.0311C82.9174 55.1462 86.3303 55.1462 88.4257 53.0127Z" fill="white"/>
<path d="M68.9727 65.4908C71.9744 65.4908 74.4078 63.0345 74.4078 60.0044C74.4078 56.9744 71.9744 54.5181 68.9727 54.5181C65.971 54.5181 63.5376 56.9744 63.5376 60.0044C63.5376 63.0345 65.971 65.4908 68.9727 65.4908Z" fill="white"/>
</g>
<defs>
<clipPath id="clip0_0_4">
<rect width="58" height="64" fill="white" transform="translate(32 28)"/>
</clipPath>
</defs>
</svg>
