<svg width="110" height="109" viewBox="0 0 110 109" fill="none" xmlns="http://www.w3.org/2000/svg">
<path d="M108 2V82.2805C98.2629 91.9257 92.8113 97.3259 83.0743 107H2V26.7195C11.7371 17.0454 17.1887 11.6452 26.9257 2H108Z" fill="#8B2AD3" fill-opacity="0.4" stroke="#8B2AD3" stroke-width="4" stroke-miterlimit="10"/>
<path d="M72 2L61.7639 12.2594H32.2734L9.24938 35.3649V75.7632L2 83V26.8784C11.6852 17.1421 17.1077 11.7072 26.7929 2H72Z" fill="#8B2AD3"/>
<g clip-path="url(#clip0_195_8)">
<path d="M31.3869 28.4041C34.3606 28.4041 36.7762 30.8424 36.7762 33.8442V76.1189C36.7762 79.1207 34.3606 81.5591 31.3869 81.5591C28.4131 81.5591 25.9975 79.1207 25.9975 76.1189V33.8442C26.0067 30.8424 28.4131 28.4041 31.3869 28.4041Z" fill="#8B2AD3"/>
<path d="M66.1843 25.1158C68.2797 27.2493 68.2614 30.6945 66.1477 32.8004L36.3736 62.5414C34.26 64.6565 30.847 64.638 28.7608 62.5044C26.6655 60.3708 26.6838 56.9257 28.7974 54.8198L58.5715 25.088C60.6852 22.9637 64.0981 22.9822 66.1843 25.1158Z" fill="#8B2AD3"/>
<path d="M66.1843 84.8101C68.2797 82.6765 68.2614 79.2313 66.1477 77.1254L36.3736 47.3937C34.26 45.2786 30.847 45.2971 28.7608 47.4307C26.6655 49.5642 26.6838 53.0094 28.7974 55.1153L58.5715 84.847C60.6852 86.9714 64.0981 86.9529 66.1843 84.8101Z" fill="#8B2AD3"/>
<path d="M82.4256 61.9872C84.5209 64.1208 84.5118 67.566 82.4073 69.6811L66.7425 85.4198C64.6288 87.5349 61.2159 87.5257 59.1205 85.4013C57.0252 83.2677 57.0343 79.8226 59.1388 77.7075L74.8036 61.9688C76.9081 59.8536 80.3211 59.8629 82.4256 61.9872Z" fill="#8B2AD3"/>
<path d="M82.4256 48.0127C84.5209 45.8791 84.5118 42.4339 82.4073 40.3188L66.7425 24.5801C64.6288 22.465 61.2159 22.4742 59.1205 24.5986C57.0252 26.7322 57.0343 30.1773 59.1388 32.2924L74.8036 48.0311C76.9173 50.1462 80.3302 50.1462 82.4256 48.0127Z" fill="#8B2AD3"/>
<path d="M62.9727 60.4908C65.9744 60.4908 68.4078 58.0345 68.4078 55.0044C68.4078 51.9744 65.9744 49.5181 62.9727 49.5181C59.971 49.5181 57.5376 51.9744 57.5376 55.0044C57.5376 58.0345 59.971 60.4908 62.9727 60.4908Z" fill="#8B2AD3"/>
</g>
<defs>
<clipPath id="clip0_195_8">
<rect width="58" height="64" fill="white" transform="translate(26 23)"/>
</clipPath>
</defs>
</svg>
