<svg width="200" height="45" viewBox="0 0 200 45" fill="none" xmlns="http://www.w3.org/2000/svg">
<g clip-path="url(#clip0_514_21407)">
<path fill-rule="evenodd" clip-rule="evenodd" d="M4.54891 44.0558C3.0972 44.0558 2.37134 44.0558 1.82695 43.7808C1.37329 43.5058 0.919635 43.1391 0.647439 42.5891C0.375243 42.0391 0.375244 41.3058 0.375244 39.8391V0.972412H7.08941C8.54112 0.972412 9.26697 0.972408 9.81136 1.24741C10.265 1.52241 10.7187 1.88908 10.9909 2.43908C11.2631 2.98908 11.2631 3.72241 11.2631 5.18908V31.8641C11.2631 32.5974 11.2631 32.9641 11.4445 33.2391C11.5353 33.5141 11.8075 33.6974 11.9889 33.7891C12.2611 33.9724 12.6241 33.9724 13.3499 33.9724H28.9558C30.4075 33.9724 31.1334 33.9724 31.6777 34.2474C32.1314 34.5224 32.5851 34.8891 32.8573 35.4391C33.1295 35.9891 33.1295 36.7224 33.1295 38.1891V44.0558H4.54891Z" fill="white"/>
<path fill-rule="evenodd" clip-rule="evenodd" d="M119.414 5.09716C119.414 3.63049 119.414 2.89716 119.687 2.34716C119.959 1.88883 120.322 1.43049 120.866 1.15549C121.41 0.880489 122.136 0.880493 123.588 0.880493H127.399C128.306 0.880493 128.76 0.880492 129.123 0.972158C129.486 1.06383 129.758 1.24716 130.03 1.52216C130.302 1.79716 130.574 2.16382 131.028 2.98882L144.366 26.6388V5.09716C144.366 3.63049 144.366 2.89716 144.638 2.34716C144.91 1.88883 145.273 1.43049 145.817 1.15549C146.362 0.880489 147.088 0.880493 148.539 0.880493H154.8V39.7472C154.8 41.2139 154.8 41.9472 154.528 42.4972C154.255 42.9555 153.892 43.4139 153.348 43.6889C152.804 43.9639 152.078 43.9639 150.626 43.9639H146.815C145.908 43.9639 145.454 43.9639 145.091 43.8722C144.729 43.7805 144.456 43.5972 144.184 43.3222C143.912 43.0472 143.64 42.6805 143.186 41.8555L129.848 18.2055V39.7472C129.848 41.2139 129.848 41.9472 129.576 42.4972C129.304 42.9555 128.941 43.4139 128.397 43.6889C127.852 43.9639 127.127 43.9639 125.675 43.9639H119.414V5.09716Z" fill="white"/>
<path fill-rule="evenodd" clip-rule="evenodd" d="M166.141 0.880493H159.881V39.7472C159.881 41.2139 159.881 41.9472 160.153 42.4972C160.425 42.9555 160.788 43.4139 161.333 43.6889C161.877 43.9639 162.603 43.9639 164.055 43.9639H170.315V26.3638H172.039C172.765 26.3638 173.128 26.3638 173.491 26.4555C173.763 26.5472 174.035 26.6388 174.307 26.8222C174.58 27.0055 174.852 27.2805 175.305 27.9222L186.828 42.4972C187.282 43.0472 187.554 43.3222 187.826 43.5972C188.099 43.7805 188.371 43.8722 188.643 43.9639C189.006 44.0555 189.369 44.0555 190.095 44.0555H199.984L184.651 24.8972C183.925 23.9805 183.471 23.4305 183.381 22.9722C183.29 22.5138 183.29 22.0555 183.381 21.5055C183.562 20.9555 183.925 20.4972 184.651 19.5805L199.712 0.880493H189.913C189.187 0.880493 188.824 0.880492 188.462 0.972158C188.189 1.06383 187.917 1.15549 187.645 1.33883C187.373 1.52216 187.101 1.79716 186.647 2.43882L175.305 16.4638C174.852 17.0138 174.58 17.2888 174.307 17.5638C174.035 17.7472 173.763 17.8388 173.491 17.9305C173.128 18.0222 172.765 18.0222 172.039 18.0222H170.315V5.09716C170.315 3.63049 170.315 2.89716 170.043 2.34716C169.771 1.88883 169.408 1.43049 168.863 1.15549C168.319 0.880489 167.593 0.880493 166.141 0.880493Z" fill="white"/>
<path fill-rule="evenodd" clip-rule="evenodd" d="M38.0293 43.0473C37.7571 42.4973 37.7571 41.7639 37.7571 40.2973V4.73058C37.7571 3.26392 37.7571 2.53058 38.0293 1.98058C38.3015 1.52225 38.6644 1.06391 39.2088 0.788912C39.7532 0.513912 40.479 0.513916 41.9307 0.513916H55.5405C59.1698 0.513916 60.9844 0.513917 62.5269 0.880584C66.6098 1.98059 69.6947 5.18892 70.7835 9.31392C71.1464 10.7806 71.1464 12.7056 71.1464 16.3723C71.1464 18.7556 70.0576 19.6723 69.1503 20.4056C68.5152 20.9556 67.8801 21.4139 67.8801 22.4223C67.8801 23.4306 68.6059 23.8889 69.3318 24.4389C70.4206 25.1723 71.7815 26.1806 71.7815 28.6556C71.7815 32.3223 71.7815 34.1556 71.4186 35.7139C70.3298 39.8389 67.1542 43.0473 63.162 44.1473C61.7103 44.514 59.8957 44.514 56.2664 44.514H41.9307C40.479 44.514 39.7532 44.514 39.2088 44.2389C38.6644 43.8723 38.3015 43.5056 38.0293 43.0473ZM57.1737 14.9056C57.9903 13.6223 58.7161 12.5223 58.7161 11.0556C58.7161 8.12226 56.3571 5.73892 53.4537 5.73892C50.5503 5.73892 48.1912 8.21392 48.1912 11.0556C48.1912 12.5223 48.9171 13.6223 49.7337 14.9056C50.9132 16.6473 52.2742 18.7556 52.2742 22.5139C52.2742 26.1806 50.9132 28.2889 49.7337 30.1223C48.9171 31.4056 48.1912 32.5056 48.1912 33.9723C48.1912 36.9056 50.5503 39.2889 53.4537 39.2889C56.3571 39.2889 58.7161 36.9056 58.7161 33.9723C58.7161 32.5056 57.9903 31.4056 57.1737 30.1223C56.0849 28.3806 54.7239 26.2723 54.7239 22.5139C54.7239 18.7556 56.0849 16.6473 57.1737 14.9056Z" fill="white"/>
<path fill-rule="evenodd" clip-rule="evenodd" d="M87.7506 35.4391L85.9359 41.1224C85.573 42.2224 85.3915 42.6807 85.1193 43.1391C84.8471 43.5057 84.4842 43.7807 84.0306 43.8724C83.5769 44.0557 83.0325 44.0557 81.9437 44.0557H74.05L86.6618 3.63072C87.0247 2.53072 87.1154 2.07238 87.4784 1.61405C87.7506 1.24738 88.1135 0.972377 88.5672 0.789044C89.0208 0.60571 89.5652 0.605713 90.654 0.605713H99.3643C100.453 0.605713 100.997 0.60571 101.451 0.789044C101.905 0.972377 102.268 1.24738 102.54 1.61405C102.812 1.98071 102.994 2.53072 103.356 3.63072L116.059 44.0557H108.165C107.076 44.0557 106.532 44.0557 106.078 43.8724C105.625 43.6891 105.353 43.4141 104.99 43.1391C104.717 42.7724 104.536 42.2224 104.173 41.1224L102.358 35.4391H87.7506ZM90.0189 28.3807H100.181L95.0999 12.2474L90.0189 28.3807Z" fill="white"/>
</g>
<defs>
<clipPath id="clip0_514_21407">
<rect width="199.61" height="44" fill="white" transform="translate(0.361572 0.453003)"/>
</clipPath>
</defs>
</svg>
