<svg width="28" height="24" viewBox="0 0 28 24" fill="none" xmlns="http://www.w3.org/2000/svg">
<path fill-rule="evenodd" clip-rule="evenodd" d="M9.43935 19.0208C9.53303 18.51 9.43935 18.7016 9.8453 18.51C10.4698 18.6058 10.7509 19.0208 11.6877 19.3401C12.9992 19.8509 15.2476 19.7551 16.5904 19.1166C17.4959 18.7973 17.7145 18.0631 18.4328 18.7973C17.8082 21.3194 10.5635 21.1917 9.43935 19.0208ZM22.6172 1.68557C24.6469 0.951299 25.3652 4.07994 23.6477 4.62267C21.7116 5.22924 20.5874 2.41985 22.6172 1.68557ZM14.6543 7.20859L16.0907 2.1006L20.4937 3.02642C20.7123 3.66492 20.806 5.32502 22.7421 5.64427C24.1785 5.96352 25.3027 4.90999 25.4901 3.85647C26.302 0.919374 22.4298 -0.932273 20.806 2.06867L15.4974 1.01515L13.5613 7.08089C11.1256 7.30436 8.56499 7.71939 6.41032 8.86869C5.19246 9.69873 5.91068 9.37949 4.6616 8.86869C2.8192 8.13441 1.28907 9.37949 0.789439 10.5288C-0.0224661 12.4124 1.00803 13.5617 1.91362 14.4875C1.81994 21.2556 8.75235 23.7776 14.3732 23.6819C17.5272 23.5861 20.4937 22.6283 22.6484 21.064C27.0514 17.7119 25.5213 15.2218 26.1146 14.2959C26.1146 14.2959 28.5503 12.2208 26.7392 9.92221C26.2395 9.28371 25.209 8.58136 23.8663 8.77291C21.9302 8.99639 23.3666 9.92221 21.1183 8.77291C19.7755 8.07056 16.403 6.92126 14.6543 7.20859ZM17.6209 12.125C19.6506 11.4865 20.7748 14.8387 18.745 15.6687C16.7153 16.403 15.1851 13.6894 16.9963 12.4443C17.2149 12.3485 17.4023 12.2208 17.6209 12.125ZM9.25199 12.2208C11.5003 11.295 12.6245 14.711 10.6884 15.5729C9.47057 16.0837 8.53376 15.4771 8.25272 14.6471C7.72186 13.3701 8.44008 12.5401 9.25199 12.2208ZM23.2417 10.0499C24.6782 8.70906 27.8321 11.1992 25.6774 13.402C25.3652 13.0828 24.9592 12.157 24.5533 11.5185C24.1473 11.0715 23.4291 10.3372 23.2417 10.0499ZM2.10098 13.3701C0.258579 11.5823 2.50693 8.67714 4.6616 10.018L3.22515 11.5823C2.63184 12.3485 2.50693 12.9551 2.10098 13.3701Z" fill="white"/>
</svg>
