<svg width="39" height="36" viewBox="0 0 39 36" fill="none" xmlns="http://www.w3.org/2000/svg">
<g clip-path="url(#clip0_36_27211)">
<path d="M3.09863 2.45435V24.7572L11.9251 33.5836H35.9932V2.45435H3.09863Z" fill="white"/>
<path d="M38.62 35.9946H10.806L0.472656 25.6612V0H38.62V35.9946ZM10.9782 35.6501H38.2756V0.344446H0.817102V25.489L10.9782 35.6501Z" fill="white"/>
<path fill-rule="evenodd" clip-rule="evenodd" d="M15.8076 23.3949C15.8826 22.9863 15.8076 23.1395 16.1323 22.9863C16.6319 23.0629 16.8567 23.3949 17.606 23.6503C18.6551 24.0588 20.4535 23.9822 21.5276 23.4715C22.2519 23.2162 22.4268 22.6288 23.0013 23.2162C22.5017 25.2335 16.7068 25.1314 15.8076 23.3949ZM26.3483 9.52879C27.9719 8.94146 28.5464 11.444 27.1726 11.8781C25.624 12.3633 24.7248 10.1161 26.3483 9.52879ZM19.979 13.9465L21.1279 9.86076L24.6498 10.6013C24.8247 11.112 24.8996 12.4399 26.4482 12.6953C27.5972 12.9506 28.4964 12.1079 28.6463 11.2652C29.2957 8.91592 26.1985 7.43483 24.8996 9.83522L20.6534 8.99253L19.1047 13.8444C17.1564 14.0231 15.1082 14.3551 13.3848 15.2744C12.4106 15.9384 12.9851 15.683 11.986 15.2744C10.5123 14.6871 9.28839 15.683 8.88874 16.6023C8.23932 18.1089 9.06359 19.0282 9.78795 19.7688C9.71302 25.1824 15.2581 27.1998 19.7541 27.1232C22.2769 27.0466 24.6498 26.2805 26.3733 25.0292C29.8952 22.3479 28.6713 20.3561 29.1459 19.6156C29.1459 19.6156 31.0941 17.9557 29.6454 16.1171C29.2458 15.6064 28.4215 15.0446 27.3474 15.1978C25.7988 15.3766 26.9478 16.1171 25.1494 15.1978C24.0753 14.636 21.3777 13.7167 19.979 13.9465ZM22.3519 17.8791C23.9754 17.3684 24.8746 20.0497 23.2511 20.7136C21.6275 21.3009 20.4036 19.1304 21.8523 18.1345C22.0271 18.0579 22.177 17.9557 22.3519 17.8791ZM15.6578 17.9557C17.4562 17.2152 18.3554 19.9475 16.8067 20.637C15.8326 21.0456 15.0833 20.5604 14.8585 19.8965C14.4338 18.875 15.0083 18.2111 15.6578 17.9557ZM26.8479 16.2193C27.9969 15.1467 30.5196 17.1386 28.7962 18.9005C28.5464 18.6452 28.2217 17.9046 27.897 17.3939C27.5722 17.0364 26.9978 16.4491 26.8479 16.2193ZM9.93782 18.875C8.46412 17.445 10.2625 15.1212 11.986 16.1937L10.837 17.445C10.3624 18.0579 10.2625 18.543 9.93782 18.875Z" fill="black"/>
</g>
<defs>
<clipPath id="clip0_36_27211">
<rect width="38.1473" height="35.9946" fill="white" transform="translate(0.472656)"/>
</clipPath>
</defs>
</svg>
