<svg width="444" height="109" viewBox="0 0 444 109" fill="none" xmlns="http://www.w3.org/2000/svg">
<path d="M108 2V82.2805C98.2629 91.9257 92.8113 97.3259 83.0743 107H2V26.7195C11.7371 17.0454 17.1887 11.6452 26.9257 2H108Z" fill="#8B2AD3" fill-opacity="0.4" stroke="#8B2AD3" stroke-width="4" stroke-miterlimit="10"/>
<path d="M74.5143 58.6477C74.4816 58.8247 73.9518 59.3687 73.4286 59.7621C71.8784 60.8961 69.1052 61.9581 66.2927 62.4629C64.6902 62.7578 63.0812 62.7972 62.6037 62.5612C62.2898 62.4039 62.244 62.2793 62.3552 61.8729C62.5906 61.0272 63.3559 60.1095 64.5463 59.2442C65.1546 58.805 67.6074 57.3104 68.752 56.6811C70.6357 55.6453 72.1662 55.0291 73.1931 54.8784C73.5201 54.8325 73.9126 54.8194 74.0369 54.8784C74.2396 54.957 74.462 55.5535 74.5536 56.2746C74.5928 56.6548 74.5732 58.3396 74.5143 58.6477Z" fill="#450077"/>
<path d="M48.0768 62.3645C48.0114 62.5022 47.6713 62.6464 47.2919 62.6988C46.9126 62.7578 45.7418 62.7185 45.0812 62.6398C42.7004 62.3252 40.1757 61.591 38.3377 60.6929C37.3043 60.1881 36.5652 59.6834 36.0158 59.1327L35.7018 58.805L35.6691 58.3789C35.6102 57.6381 35.6233 56.4647 35.7149 56.0517C35.7738 55.7043 35.8915 55.3634 36.0615 55.0619C36.1531 54.9504 36.1531 54.9504 36.5521 54.9504C37.0427 54.9504 37.4613 55.0291 38.135 55.2454C39.515 55.6715 41.5688 56.7073 44.0739 58.215C46.1408 59.4539 46.9126 60.057 47.5078 60.8896C47.9068 61.414 48.1815 62.1416 48.0768 62.3645Z" fill="#450077"/>
<path d="M63.9707 78.0252C63.9707 78.058 63.8333 78.602 63.6698 79.2379C63.4998 79.8803 63.3689 80.3982 63.3689 80.4179C63.2447 80.431 63.1335 80.4375 63.0092 80.431H62.6495L62.1589 81.5978C61.8907 82.2402 61.6422 82.8368 61.6095 82.922L61.5441 83.0793L61.3086 82.6991L61.0732 82.3189V79.2051L60.9816 79.2248C60.7919 79.2707 59.4314 79.4477 58.8362 79.5067C56.3769 79.7558 53.9111 79.6968 51.4649 79.3493C51.0724 79.2904 50.7323 79.251 50.7258 79.2576C50.7127 79.2707 50.7258 79.9918 50.7454 80.8767L50.7781 82.4762L50.5884 82.7712C50.4903 82.9286 50.3857 83.0662 50.3857 83.0728C50.353 83.1055 50.2418 82.9286 49.9801 82.4107C49.6989 81.8732 49.4961 81.2963 49.3522 80.6997L49.2737 80.372L48.9271 80.3916L48.5804 80.4244L48.4889 80.0114C48.4431 79.7886 48.3908 79.4346 48.3646 79.2445L48.3319 78.8839L48.0376 78.6283C47.8675 78.484 47.704 78.3333 47.6647 78.3136C47.6059 78.2677 47.5862 78.1891 47.5862 78.1235V77.9858L48.986 77.999L50.3857 78.0121L50.4314 78.1563L50.4772 78.3005L50.9612 78.3202C51.2294 78.3333 52.0862 78.3529 52.845 78.3792L54.2447 78.4119L54.6044 77.8482L54.9772 77.2844H55.4482L55.4351 76.1176L55.422 74.9507L54.8072 74.682C52.8188 73.8036 51.6546 72.8006 51.2163 71.5879C51.1248 71.3388 51.1248 71.2535 51.1051 70.126C51.0921 69.0116 51.0921 68.9133 51.1705 68.6642C51.3275 68.1004 51.7657 67.6612 52.3282 67.517C52.5179 67.458 53.0216 67.458 55.6705 67.458L58.7905 67.4711L59.1371 67.6416C59.5492 67.8448 59.7454 67.989 59.9809 68.3036C60.249 68.6642 60.3275 68.9461 60.3275 69.6278C60.3275 70.6046 60.2621 71.4502 60.1575 71.7845C60.0136 72.2434 59.7846 72.6826 59.5034 73.0759C58.9409 73.797 57.9205 74.5181 56.9918 74.8393L56.7236 74.9376L56.7367 76.1176L56.7498 77.2975L56.9983 77.3172L57.2469 77.3369L57.5804 77.8416L57.9075 78.3464H59.4118C60.2425 78.3464 60.9685 78.3595 61.0405 78.3661C61.1516 78.3857 61.1778 78.3792 61.289 78.1891L61.4264 77.9858H62.7149C63.6764 77.9662 63.9707 77.9858 63.9707 78.0252Z" fill="#450077"/>
<path d="M58.0449 81.2505C57.829 81.375 57.6851 81.4275 57.6524 81.4078C57.6197 81.3947 57.4627 81.2636 57.2927 81.1391L56.9918 80.89L56.6779 81.2243C55.9911 81.965 55.9715 81.9978 55.7687 82.0109C55.4547 82.0437 55.3893 81.9912 55.0034 81.4144C54.8007 81.1194 54.6437 80.8768 54.6437 80.8768C54.6437 80.8768 54.4998 80.8572 54.3297 80.8441L54.0158 80.8113L53.8719 81.1128L53.728 81.4144L53.4729 81.3357C53.2702 81.2702 53.0674 81.1915 52.8777 81.0997L52.5441 80.9293V80.2869L55.5267 80.3L58.5092 80.3131L58.5223 80.6146C58.5223 80.9817 58.5354 80.9686 58.0449 81.2505Z" fill="black"/>
<path d="M86.0979 67.5301C86.0848 67.4842 86.0848 67.4055 86.0783 67.281C83.3835 66.986 75.6982 66.809 68.5623 72.7153C68.5623 72.7153 66.2599 62.1416 55.4874 62.1416C44.7149 62.1416 40.7185 72.7153 40.7185 72.7153C34.6815 66.2059 26.6037 66.6779 23.6866 67.104C23.6866 67.1695 23.6735 67.2482 23.6735 67.3203C23.5819 68.9526 23.6277 69.7261 23.8959 70.7487C24.7396 73.9543 27.3297 77.4876 31.3915 80.9488C38.0434 86.6192 47.0695 90.7097 53.9046 91.1817C61.0274 91.6667 71.5448 87.491 78.5499 81.3946C79.6488 80.4178 80.6822 79.3821 81.6502 78.2808C82.3435 77.4679 83.377 76.0782 83.2985 76.0782C83.2788 76.0782 83.2985 76.0585 83.3442 76.0323C83.377 76.0127 83.4097 75.9733 83.39 75.9537C83.377 75.9405 83.4031 75.9078 83.4358 75.8947C83.4685 75.8815 83.4947 75.8619 83.4816 75.8357C83.4685 75.816 83.4816 75.7898 83.5274 75.7767C83.5601 75.7635 83.5732 75.7308 83.5601 75.7111C83.547 75.6914 83.5601 75.6652 83.5797 75.6652C83.5993 75.6652 83.6255 75.6324 83.6255 75.6062C83.6255 75.5866 83.6451 75.5472 83.6713 75.5472C83.6909 75.5472 83.7171 75.5276 83.7171 75.5013C83.7498 75.4096 83.8086 75.3243 83.861 75.2457C84.031 74.99 84.7047 73.7838 84.7897 73.5806C85.4307 72.1319 85.8363 70.834 86.0259 69.5426C86.0848 68.9329 86.1437 67.7988 86.0979 67.5301ZM58.0448 81.2503C57.829 81.3749 57.6851 81.4273 57.6524 81.4077C57.6197 81.3946 57.4627 81.2635 57.2927 81.1389L56.9918 80.8898L56.6778 81.2241C55.9911 81.9649 55.9714 81.9977 55.7687 82.0108C55.4547 82.0435 55.3893 81.9911 55.0034 81.4142C54.8007 81.1192 54.6437 80.8767 54.6437 80.8767C54.6437 80.8767 54.4998 80.857 54.3297 80.8439L54.0158 80.8111L53.8719 81.1127L53.728 81.4142L53.4729 81.3356C53.2701 81.27 53.0674 81.1914 52.8777 81.0996L52.5441 80.9291V80.2867L55.5267 80.2998L58.5092 80.3129L58.5223 80.6145C58.5223 80.9816 58.5354 80.9685 58.0448 81.2503ZM63.6568 79.2248C63.4867 79.8672 63.3559 80.385 63.3559 80.4047C63.2316 80.4178 63.1204 80.4244 62.9961 80.4178H62.6364L62.1524 81.5978C61.8842 82.2402 61.6357 82.8367 61.603 82.922L61.5376 83.0793L61.3021 82.6991L61.0666 82.3189V79.2051L60.9751 79.2248C60.7854 79.2706 59.4249 79.4476 58.8297 79.5066C56.3704 79.7557 53.9046 79.6967 51.4584 79.3493C51.0659 79.2903 50.7258 79.251 50.7193 79.2575C50.7062 79.2706 50.7193 79.9917 50.7389 80.8767L50.7716 82.4762L50.5819 82.7712C50.4838 82.9285 50.3791 83.0662 50.3791 83.0727C50.3464 83.1055 50.2352 82.9285 49.9736 82.4106C49.6924 81.8731 49.4896 81.2962 49.3457 80.6997L49.2672 80.3719L48.9206 80.3916L48.5739 80.4244L48.4823 80.0114C48.4365 79.7885 48.3842 79.4345 48.3581 79.2444L48.3254 78.8839L48.031 78.6282C47.861 78.484 47.6975 78.3332 47.6582 78.3136C47.5993 78.2677 47.5797 78.189 47.5797 78.1235V77.9858L48.9794 77.9989L50.3791 78.012L50.4249 78.1562L50.4707 78.3005L50.9547 78.3201C51.2229 78.3332 52.0797 78.3529 52.8384 78.3791L54.2381 78.4119L54.5979 77.8481L54.9707 77.2844H55.4416L55.4286 76.1175L55.4155 74.9507L54.8006 74.6819C52.8123 73.8035 51.648 72.8005 51.2098 71.5878C51.1182 71.3387 51.1182 71.2535 51.0986 70.126C51.0855 69.0116 51.0855 68.9132 51.164 68.6641C51.321 68.1004 51.7592 67.6612 52.3217 67.517C52.5114 67.458 53.015 67.458 55.664 67.458L58.7839 67.4711L59.1306 67.6415C59.5427 67.8447 59.7389 67.9889 59.9743 68.3036C60.2425 68.6641 60.321 68.946 60.321 69.6278C60.321 70.6045 60.2556 71.4502 60.1509 71.7845C60.007 72.2433 59.7781 72.6826 59.4969 73.0759C58.9344 73.797 57.914 74.518 56.9852 74.8393L56.7171 74.9376L56.7302 76.1175L56.7432 77.2975L56.9918 77.3172L57.2403 77.3368L57.5739 77.8416L57.9009 78.3463H59.4053C60.236 78.3463 60.962 78.3595 61.0339 78.366C61.1451 78.3857 61.1713 78.3791 61.2825 78.189L61.4198 77.9858H62.7084C63.7091 77.9858 63.9969 77.9989 63.9969 78.0317C63.9707 78.0448 63.8203 78.5954 63.6568 79.2248Z" fill="#BE66FF"/>
<path d="M86.0063 66.383C85.9867 65.8782 85.9409 65.1702 85.9082 64.8228C85.4242 59.7162 84.1226 55.547 81.6568 51.1222C81.5587 50.9517 81.4671 50.7879 81.4082 50.6502C81.3886 50.6174 81.3755 50.5847 81.3624 50.5584C81.7091 49.5096 83.135 45.1372 84.2665 40.1355C85.8036 33.3442 86.7781 25.4057 83.7956 23.0195C83.7956 23.0195 78.635 22.6393 71.7215 29.4306C69.8443 31.312 68.1306 33.3442 66.6066 35.514L66.1226 35.3567C63.3428 34.4455 60.4584 33.8817 57.5478 33.6916C56.6713 33.626 53.4075 33.626 52.3414 33.6916C49.1233 33.9079 46.651 34.3865 43.845 35.3698C43.7338 35.4156 43.6292 35.4484 43.531 35.4812C41.9482 33.3245 40.1887 31.2989 38.2462 29.4438C31.0514 22.6197 25.7011 23.013 25.7011 23.013C22.5354 25.4778 23.6146 33.7768 25.2498 40.791C26.329 45.4387 27.6502 49.5161 28.1473 50.9911C28.1146 51.0697 28.0688 51.1615 28.0231 51.2402C25.4068 56.55 23.994 61.6631 23.6604 67.1106C26.5906 66.6845 34.6553 66.1994 40.7055 72.7219C40.7055 72.7219 44.7018 62.1482 55.4744 62.1482C66.2469 62.1482 68.5492 72.7219 68.5492 72.7219C75.6851 66.8156 83.3704 67.0057 86.0652 67.2876C86.0521 67.0582 86.026 66.7173 86.0063 66.383ZM30.273 46.7432C30.273 46.7432 26.0739 36.2285 27.1531 30.2238C27.3297 29.2143 27.6698 28.3228 28.1996 27.6476C28.1996 27.6476 32.9547 28.1196 40.6335 36.6677C40.6335 36.6677 39.1749 37.3757 37.2193 38.8834C37.2193 38.8834 37.2062 38.8965 37.1996 38.8965C35.0739 40.5288 32.3595 43.1116 30.273 46.7432ZM48.0768 62.3646C48.0114 62.5022 47.6713 62.6464 47.2919 62.6989C46.9126 62.7579 45.7418 62.7185 45.0812 62.6399C42.7004 62.3252 40.1757 61.591 38.3377 60.6929C37.3043 60.1882 36.5652 59.6834 36.0158 59.1328L35.7018 58.805L35.6691 58.3789C35.6103 57.6382 35.6233 56.4648 35.7149 56.0518C35.7738 55.7044 35.8915 55.3635 36.0616 55.0619C36.1531 54.9505 36.1531 54.9505 36.5521 54.9505C37.0427 54.9505 37.4613 55.0292 38.135 55.2455C39.5151 55.6716 41.5688 56.7073 44.0739 58.215C46.1408 59.454 46.9126 60.0571 47.5078 60.8896C47.9068 61.414 48.1815 62.1417 48.0768 62.3646ZM74.5143 58.6477C74.4816 58.8247 73.9518 59.3688 73.4286 59.7621C71.8784 60.8962 69.1052 61.9581 66.2927 62.4629C64.6902 62.7579 63.0812 62.7972 62.6037 62.5612C62.2898 62.4039 62.244 62.2793 62.3552 61.8729C62.5906 61.0273 63.3559 60.1095 64.5463 59.2442C65.1546 58.805 67.6074 57.3104 68.752 56.6811C70.6357 55.6454 72.1662 55.0292 73.1931 54.8784C73.5201 54.8325 73.9126 54.8194 74.0369 54.8784C74.2396 54.957 74.462 55.5536 74.5536 56.2747C74.5928 56.6549 74.5732 58.3396 74.5143 58.6477ZM72.6502 38.8834L72.6306 38.8703C70.7469 37.3626 69.3341 36.6546 69.3341 36.6546C76.7512 28.1065 81.3428 27.6345 81.3428 27.6345C81.8464 28.3228 82.1735 29.1947 82.3501 30.2107C83.3966 36.2154 79.3414 46.7432 79.3414 46.7432C77.6473 43.7212 75.3712 41.0467 72.6502 38.8834Z" fill="#8B2AD3"/>
<path d="M82.3566 30.2108C81.4802 30.0993 77.3399 30.0731 72.6502 38.8834L72.6306 38.8703C70.7469 37.3626 69.3341 36.6546 69.3341 36.6546C76.7513 28.1065 81.3428 27.6345 81.3428 27.6345C81.853 28.3228 82.18 29.2012 82.3566 30.2108Z" fill="#B557FA"/>
<path d="M79.3545 46.7432C77.6474 43.7081 75.3843 41.0401 72.6568 38.8834C77.3465 30.0796 81.4737 30.0993 82.3632 30.2107C83.4032 36.2285 79.3545 46.7432 79.3545 46.7432Z" fill="#5A118F"/>
<path d="M82.5267 30.2501C82.4678 30.237 82.4155 30.2304 82.3566 30.2173L82.5267 30.2501Z" fill="#FF8300"/>
<path d="M40.6269 36.6546C40.6269 36.6546 39.1684 37.3626 37.2127 38.8703C37.2127 38.8703 37.1996 38.8834 37.1931 38.8834C32.3333 30.0665 28.0557 30.0993 27.14 30.2108C27.3166 29.2012 27.6567 28.3097 28.1865 27.6345C28.1931 27.6411 32.9547 28.1131 40.6269 36.6546Z" fill="#B557FA"/>
<path d="M37.2062 38.8834C35.0739 40.5222 32.3595 43.0984 30.273 46.7432C30.273 46.7432 26.0739 36.2285 27.1531 30.2107C28.0623 30.0993 32.3464 30.0796 37.2062 38.8834Z" fill="#5A118F"/>
<path d="M27.1531 30.2107C27.0942 30.2238 27.0288 30.2304 26.9765 30.2435L27.1531 30.2107Z" fill="#FF8300"/>
<path d="M67.9932 52.5839C67.9932 52.5839 64.4024 52.8068 64.8537 49.9945C65.305 47.1823 68.111 46.848 68.8958 46.9594C69.6807 47.0709 72.8203 48.1984 72.2643 50.5583C71.7018 52.9182 70.9169 52.4725 70.4656 52.5839C70.0143 52.6953 67.9932 52.5839 67.9932 52.5839Z" fill="#BE66FF"/>
<path d="M41.5165 52.5839C41.5165 52.5839 37.9256 52.8068 38.3769 49.9945C38.8283 47.1823 41.6342 46.848 42.4191 46.9594C43.204 47.0709 46.3435 48.1984 45.7876 50.5583C45.2251 52.9182 44.4402 52.4725 43.9889 52.5839C43.531 52.6953 41.5165 52.5839 41.5165 52.5839Z" fill="#BE66FF"/>
<path d="M107.828 67.4053H145.336L155.769 77.7968H408.573L443.545 42.9644" stroke="#8B2AD3" stroke-width="4" stroke-miterlimit="10"/>
<path d="M72 2L61.7639 12.2594H32.2734L9.24938 35.3649V75.7632L2 83V26.8784C11.6852 17.1421 17.1077 11.7072 26.7929 2H72Z" fill="#8B2AD3"/>
<path d="M377.305 77.9909L383.643 71.6784H401.844L426.676 46.946H439.547L408.572 77.7967H378.67L377.305 77.9909Z" fill="#8B2AD3"/>
</svg>
