<svg width="39" height="36" viewBox="0 0 39 36" fill="none" xmlns="http://www.w3.org/2000/svg">
<g clip-path="url(#clip0_36_27204)">
<path d="M2.86328 2.45435V24.7572L11.6897 33.5836H35.7578V2.45435H2.86328Z" fill="white"/>
<path d="M38.3837 35.9946H10.5697L0.236328 25.6612V0H38.3837V35.9946ZM10.7419 35.6501H38.0392V0.344446H0.580774V25.489L10.7419 35.6501Z" fill="white"/>
<path d="M27.8213 9.54376L9.70012 16.827C9.1172 17.0628 9.14255 17.9274 9.75081 18.1108L14.3635 19.5255L16.0869 25.1582C16.2643 25.7608 16.9993 25.918 17.4048 25.4726L19.7872 22.9575L24.4505 26.4943C25.0334 26.9397 25.8444 26.5991 25.9712 25.8918L29.0632 10.5917C29.2152 9.88435 28.5056 9.25558 27.8213 9.54376ZM25.5403 12.9234L17.126 20.6258C17.05 20.7044 16.9993 20.8092 16.9739 20.914L16.6445 23.9007C16.6191 24.0055 16.4924 24.0055 16.4671 23.9269L15.1238 19.4731C15.0731 19.2635 15.1491 19.0539 15.3266 18.9491L25.2615 12.5828C25.515 12.4256 25.7431 12.74 25.5403 12.9234Z" fill="black"/>
</g>
<defs>
<clipPath id="clip0_36_27204">
<rect width="38.1473" height="35.9946" fill="white" transform="translate(0.236328)"/>
</clipPath>
</defs>
</svg>
