<svg width="26" height="23" viewBox="0 0 26 23" fill="none" xmlns="http://www.w3.org/2000/svg">
<path d="M23.6989 0.70474L1.04406 9.81017C0.315298 10.1049 0.346987 11.1858 1.10743 11.4151L6.87411 13.1838L9.02871 20.2257C9.2505 20.9791 10.1694 21.1756 10.6763 20.6188L13.6547 17.4744L19.4848 21.8961C20.2136 22.453 21.2275 22.0272 21.3859 21.1428L25.2515 2.01487C25.4416 1.13053 24.5544 0.344454 23.6989 0.70474ZM20.8473 4.92992L10.3278 14.5594C10.2327 14.6577 10.1694 14.7887 10.1377 14.9197L9.72577 18.6536C9.69409 18.7846 9.53567 18.7846 9.50399 18.6863L7.82467 13.1183C7.7613 12.8562 7.85636 12.5942 8.07816 12.4632L20.4987 4.50413C20.8156 4.30761 21.1007 4.70065 20.8473 4.92992Z" fill="white"/>
</svg>
