<svg width="39" height="36" viewBox="0 0 39 36" fill="none" xmlns="http://www.w3.org/2000/svg">
<g clip-path="url(#clip0_36_27197)">
<path d="M2.62695 2.45435V24.7572L11.4534 33.5836H35.5215V2.45435H2.62695Z" fill="white"/>
<path d="M38.1473 35.9946H10.3334L0 25.6612V0H38.1473V35.9946ZM10.5056 35.6501H37.8029V0.344446H0.344446V25.489L10.5056 35.6501Z" fill="white"/>
<path d="M30.1394 11.0248C29.3673 11.3596 28.5694 11.5914 27.6944 11.6944C28.5694 11.1793 29.2386 10.3295 29.5474 9.3508C28.7239 9.84013 27.8231 10.2007 26.8451 10.381C26.073 9.55683 24.9663 9.04175 23.7566 9.04175C21.4146 9.04175 19.51 10.9476 19.51 13.2912C19.51 13.626 19.5358 13.935 19.613 14.2698C16.087 14.0896 12.9729 12.4155 10.8882 9.84013C10.5279 10.4582 10.322 11.2051 10.322 11.9777C10.322 13.4457 11.0683 14.7592 12.2008 15.506C11.5059 15.4803 10.8625 15.3 10.2705 14.9652C10.2705 14.991 10.2705 14.991 10.2705 15.0167C10.2705 17.077 11.7375 18.7768 13.6678 19.1631C13.3075 19.2662 12.9471 19.3177 12.5611 19.3177C12.278 19.3177 12.0206 19.2919 11.7632 19.2404C12.3037 20.9144 13.8737 22.1506 15.7267 22.1764C14.2855 23.3096 12.4581 23.9792 10.4764 23.9792C10.1418 23.9792 9.80724 23.9534 9.47266 23.9277C11.3515 25.1381 13.5648 25.8335 15.9584 25.8335C23.7566 25.8335 28.0032 19.3692 28.0032 13.7805C28.0032 13.6002 28.0032 13.42 28.0032 13.2397C28.8525 12.6216 29.5732 11.8747 30.1394 11.0248Z" fill="black"/>
</g>
<defs>
<clipPath id="clip0_36_27197">
<rect width="38.1473" height="35.9946" fill="white"/>
</clipPath>
</defs>
</svg>
