<svg width="26" height="22" viewBox="0 0 26 22" fill="none" xmlns="http://www.w3.org/2000/svg">
<path d="M25.8373 2.55587C24.872 2.97444 23.8746 3.26422 22.7806 3.39301C23.8746 2.74906 24.7111 1.68654 25.0972 0.463031C24.0676 1.07478 22.9415 1.52555 21.7188 1.75093C20.7535 0.720611 19.3699 0.0766602 17.8577 0.0766602C14.9296 0.0766602 12.5486 2.45928 12.5486 5.38925C12.5486 5.80782 12.5808 6.19419 12.6773 6.61276C8.26922 6.38738 4.37593 4.29454 1.76968 1.07478C1.31921 1.84753 1.0618 2.78125 1.0618 3.74718C1.0618 5.58244 1.99491 7.22451 3.41065 8.15824C2.5419 8.12605 1.7375 7.90066 0.997457 7.48209C0.997457 7.51429 0.997457 7.51429 0.997457 7.54649C0.997457 10.1223 2.83148 12.2473 5.24468 12.7303C4.79421 12.8591 4.34375 12.9235 3.86111 12.9235C3.50718 12.9235 3.18542 12.8913 2.86366 12.8269C3.53935 14.9197 5.50209 16.4652 7.81875 16.4974C6.0169 17.9141 3.73241 18.7512 1.25486 18.7512C0.836573 18.7512 0.418287 18.719 0 18.6868C2.34885 20.2001 5.11597 21.0695 8.10834 21.0695C17.8577 21.0695 23.1667 12.9879 23.1667 6.00101C23.1667 5.77562 23.1667 5.55024 23.1667 5.32486C24.2285 4.55212 25.1294 3.61839 25.8373 2.55587Z" fill="white"/>
</svg>
