<svg width="500" height="100" viewBox="0 0 449 123" fill="none" xmlns="http://www.w3.org/2000/svg">
<g clip-path="url(#clip0_0_4568)">
<path d="M113 8V88.2805C103.263 97.9257 97.8113 103.326 88.0743 113H7V32.7195C16.7371 23.0454 22.1887 17.6452 31.9257 8H113Z" fill="#8B2AD3" fill-opacity="0.4" stroke="#8B2AD3" stroke-width="4" stroke-miterlimit="10"/>
<path d="M79.5143 64.6477C79.4816 64.8247 78.9518 65.3687 78.4286 65.7621C76.8784 66.8961 74.1052 67.9581 71.2927 68.4629C69.6902 68.7578 68.0812 68.7972 67.6037 68.5612C67.2898 68.4039 67.244 68.2793 67.3552 67.8729C67.5906 67.0272 68.3559 66.1095 69.5463 65.2442C70.1546 64.805 72.6074 63.3104 73.752 62.6811C75.6357 61.6453 77.1662 61.0291 78.1931 60.8784C78.5201 60.8325 78.9126 60.8194 79.0369 60.8784C79.2396 60.957 79.462 61.5535 79.5536 62.2746C79.5928 62.6548 79.5732 64.3396 79.5143 64.6477Z" fill="#450077"/>
<path d="M53.0768 68.3645C53.0114 68.5022 52.6713 68.6464 52.2919 68.6988C51.9126 68.7578 50.7418 68.7185 50.0812 68.6398C47.7004 68.3252 45.1757 67.591 43.3377 66.6929C42.3043 66.1881 41.5652 65.6834 41.0158 65.1327L40.7018 64.805L40.6691 64.3789C40.6102 63.6381 40.6233 62.4647 40.7149 62.0517C40.7738 61.7043 40.8915 61.3634 41.0615 61.0619C41.1531 60.9504 41.1531 60.9504 41.5521 60.9504C42.0427 60.9504 42.4613 61.0291 43.135 61.2454C44.515 61.6715 46.5688 62.7073 49.0739 64.215C51.1408 65.4539 51.9126 66.057 52.5078 66.8896C52.9068 67.414 53.1815 68.1416 53.0768 68.3645Z" fill="#450077"/>
<path d="M68.9707 84.0252C68.9707 84.058 68.8333 84.602 68.6698 85.2379C68.4998 85.8803 68.3689 86.3982 68.3689 86.4179C68.2447 86.431 68.1335 86.4375 68.0092 86.431H67.6495L67.1589 87.5978C66.8907 88.2402 66.6422 88.8368 66.6095 88.922L66.5441 89.0793L66.3086 88.6991L66.0732 88.3189V85.2051L65.9816 85.2248C65.7919 85.2707 64.4314 85.4477 63.8362 85.5067C61.3769 85.7558 58.9111 85.6968 56.4649 85.3493C56.0724 85.2904 55.7323 85.251 55.7258 85.2576C55.7127 85.2707 55.7258 85.9918 55.7454 86.8767L55.7781 88.4762L55.5884 88.7712C55.4903 88.9286 55.3857 89.0662 55.3857 89.0728C55.353 89.1055 55.2418 88.9286 54.9801 88.4107C54.6989 87.8732 54.4961 87.2963 54.3522 86.6997L54.2737 86.372L53.9271 86.3916L53.5804 86.4244L53.4889 86.0114C53.4431 85.7886 53.3908 85.4346 53.3646 85.2445L53.3319 84.8839L53.0376 84.6283C52.8675 84.484 52.704 84.3333 52.6647 84.3136C52.6059 84.2677 52.5862 84.1891 52.5862 84.1235V83.9858L53.986 83.999L55.3857 84.0121L55.4314 84.1563L55.4772 84.3005L55.9612 84.3202C56.2294 84.3333 57.0862 84.3529 57.845 84.3792L59.2447 84.4119L59.6044 83.8482L59.9772 83.2844H60.4482L60.4351 82.1176L60.422 80.9507L59.8072 80.682C57.8188 79.8036 56.6546 78.8006 56.2163 77.5879C56.1248 77.3388 56.1248 77.2535 56.1051 76.126C56.0921 75.0116 56.0921 74.9133 56.1705 74.6642C56.3275 74.1004 56.7657 73.6612 57.3282 73.517C57.5179 73.458 58.0216 73.458 60.6705 73.458L63.7905 73.4711L64.1371 73.6416C64.5492 73.8448 64.7454 73.989 64.9809 74.3036C65.249 74.6642 65.3275 74.9461 65.3275 75.6278C65.3275 76.6046 65.2621 77.4502 65.1575 77.7845C65.0136 78.2434 64.7846 78.6826 64.5034 79.0759C63.9409 79.797 62.9205 80.5181 61.9918 80.8393L61.7236 80.9376L61.7367 82.1176L61.7498 83.2975L61.9983 83.3172L62.2469 83.3369L62.5804 83.8416L62.9075 84.3464H64.4118C65.2425 84.3464 65.9685 84.3595 66.0405 84.3661C66.1516 84.3857 66.1778 84.3792 66.289 84.1891L66.4264 83.9858H67.7149C68.6764 83.9662 68.9707 83.9858 68.9707 84.0252Z" fill="#450077"/>
<path d="M63.0449 87.2505C62.829 87.375 62.6851 87.4275 62.6524 87.4078C62.6197 87.3947 62.4627 87.2636 62.2927 87.1391L61.9918 86.89L61.6779 87.2243C60.9911 87.965 60.9715 87.9978 60.7687 88.0109C60.4547 88.0437 60.3893 87.9912 60.0034 87.4144C59.8007 87.1194 59.6437 86.8768 59.6437 86.8768C59.6437 86.8768 59.4998 86.8572 59.3297 86.8441L59.0158 86.8113L58.8719 87.1128L58.728 87.4144L58.4729 87.3357C58.2702 87.2702 58.0674 87.1915 57.8777 87.0997L57.5441 86.9293V86.2869L60.5267 86.3L63.5092 86.3131L63.5223 86.6146C63.5223 86.9817 63.5354 86.9686 63.0449 87.2505Z" fill="black"/>
<path d="M91.0979 73.5301C91.0848 73.4842 91.0848 73.4055 91.0783 73.281C88.3835 72.986 80.6982 72.809 73.5623 78.7153C73.5623 78.7153 71.2599 68.1416 60.4874 68.1416C49.7149 68.1416 45.7185 78.7153 45.7185 78.7153C39.6815 72.2059 31.6037 72.6779 28.6866 73.104C28.6866 73.1695 28.6735 73.2482 28.6735 73.3203C28.5819 74.9526 28.6277 75.7261 28.8959 76.7487C29.7396 79.9543 32.3297 83.4876 36.3915 86.9488C43.0434 92.6192 52.0695 96.7097 58.9046 97.1817C66.0274 97.6667 76.5448 93.491 83.5499 87.3946C84.6488 86.4178 85.6822 85.3821 86.6502 84.2808C87.3435 83.4679 88.377 82.0782 88.2985 82.0782C88.2788 82.0782 88.2985 82.0585 88.3442 82.0323C88.377 82.0127 88.4097 81.9733 88.39 81.9537C88.377 81.9405 88.4031 81.9078 88.4358 81.8947C88.4685 81.8815 88.4947 81.8619 88.4816 81.8357C88.4685 81.816 88.4816 81.7898 88.5274 81.7767C88.5601 81.7635 88.5732 81.7308 88.5601 81.7111C88.547 81.6914 88.5601 81.6652 88.5797 81.6652C88.5993 81.6652 88.6255 81.6324 88.6255 81.6062C88.6255 81.5866 88.6451 81.5472 88.6713 81.5472C88.6909 81.5472 88.7171 81.5276 88.7171 81.5013C88.7498 81.4096 88.8086 81.3243 88.861 81.2457C89.031 80.99 89.7047 79.7838 89.7897 79.5806C90.4307 78.1319 90.8363 76.834 91.0259 75.5426C91.0848 74.9329 91.1437 73.7988 91.0979 73.5301ZM63.0448 87.2503C62.829 87.3749 62.6851 87.4273 62.6524 87.4077C62.6197 87.3946 62.4627 87.2635 62.2927 87.1389L61.9918 86.8898L61.6778 87.2241C60.9911 87.9649 60.9714 87.9977 60.7687 88.0108C60.4547 88.0435 60.3893 87.9911 60.0034 87.4142C59.8007 87.1192 59.6437 86.8767 59.6437 86.8767C59.6437 86.8767 59.4998 86.857 59.3297 86.8439L59.0158 86.8111L58.8719 87.1127L58.728 87.4142L58.4729 87.3356C58.2701 87.27 58.0674 87.1914 57.8777 87.0996L57.5441 86.9291V86.2867L60.5267 86.2998L63.5092 86.3129L63.5223 86.6145C63.5223 86.9816 63.5354 86.9685 63.0448 87.2503ZM68.6568 85.2248C68.4867 85.8672 68.3559 86.385 68.3559 86.4047C68.2316 86.4178 68.1204 86.4244 67.9961 86.4178H67.6364L67.1524 87.5978C66.8842 88.2402 66.6357 88.8367 66.603 88.922L66.5376 89.0793L66.3021 88.6991L66.0666 88.3189V85.2051L65.9751 85.2248C65.7854 85.2706 64.4249 85.4476 63.8297 85.5066C61.3704 85.7557 58.9046 85.6967 56.4584 85.3493C56.0659 85.2903 55.7258 85.251 55.7193 85.2575C55.7062 85.2706 55.7193 85.9917 55.7389 86.8767L55.7716 88.4762L55.5819 88.7712C55.4838 88.9285 55.3791 89.0662 55.3791 89.0727C55.3464 89.1055 55.2352 88.9285 54.9736 88.4106C54.6924 87.8731 54.4896 87.2962 54.3457 86.6997L54.2672 86.3719L53.9206 86.3916L53.5739 86.4244L53.4823 86.0114C53.4365 85.7885 53.3842 85.4345 53.3581 85.2444L53.3254 84.8839L53.031 84.6282C52.861 84.484 52.6975 84.3332 52.6582 84.3136C52.5993 84.2677 52.5797 84.189 52.5797 84.1235V83.9858L53.9794 83.9989L55.3791 84.012L55.4249 84.1562L55.4707 84.3005L55.9547 84.3201C56.2229 84.3332 57.0797 84.3529 57.8384 84.3791L59.2381 84.4119L59.5979 83.8481L59.9707 83.2844H60.4416L60.4286 82.1175L60.4155 80.9507L59.8006 80.6819C57.8123 79.8035 56.648 78.8005 56.2098 77.5878C56.1182 77.3387 56.1182 77.2535 56.0986 76.126C56.0855 75.0116 56.0855 74.9132 56.164 74.6641C56.321 74.1004 56.7592 73.6612 57.3217 73.517C57.5114 73.458 58.015 73.458 60.664 73.458L63.7839 73.4711L64.1306 73.6415C64.5427 73.8447 64.7389 73.9889 64.9743 74.3036C65.2425 74.6641 65.321 74.946 65.321 75.6278C65.321 76.6045 65.2556 77.4502 65.1509 77.7845C65.007 78.2433 64.7781 78.6826 64.4969 79.0759C63.9344 79.797 62.914 80.518 61.9852 80.8393L61.7171 80.9376L61.7302 82.1175L61.7432 83.2975L61.9918 83.3172L62.2403 83.3368L62.5739 83.8416L62.9009 84.3463H64.4053C65.236 84.3463 65.962 84.3595 66.0339 84.366C66.1451 84.3857 66.1713 84.3791 66.2825 84.189L66.4198 83.9858H67.7084C68.7091 83.9858 68.9969 83.9989 68.9969 84.0317C68.9707 84.0448 68.8203 84.5954 68.6568 85.2248Z" fill="#BE66FF"/>
<path d="M91.0063 72.383C90.9867 71.8782 90.9409 71.1702 90.9082 70.8228C90.4242 65.7162 89.1226 61.547 86.6568 57.1222C86.5587 56.9517 86.4671 56.7879 86.4082 56.6502C86.3886 56.6174 86.3755 56.5847 86.3624 56.5584C86.7091 55.5096 88.135 51.1372 89.2665 46.1355C90.8036 39.3442 91.7781 31.4057 88.7956 29.0195C88.7956 29.0195 83.635 28.6393 76.7215 35.4306C74.8443 37.312 73.1306 39.3442 71.6066 41.514L71.1226 41.3567C68.3428 40.4455 65.4584 39.8817 62.5478 39.6916C61.6713 39.626 58.4075 39.626 57.3414 39.6916C54.1233 39.9079 51.651 40.3865 48.845 41.3698C48.7338 41.4156 48.6292 41.4484 48.531 41.4812C46.9482 39.3245 45.1887 37.2989 43.2462 35.4438C36.0514 28.6197 30.7011 29.013 30.7011 29.013C27.5354 31.4778 28.6146 39.7768 30.2498 46.791C31.329 51.4387 32.6502 55.5161 33.1473 56.9911C33.1146 57.0697 33.0688 57.1615 33.0231 57.2402C30.4068 62.55 28.994 67.6631 28.6604 73.1106C31.5906 72.6845 39.6553 72.1994 45.7055 78.7219C45.7055 78.7219 49.7018 68.1482 60.4744 68.1482C71.2469 68.1482 73.5492 78.7219 73.5492 78.7219C80.6851 72.8156 88.3704 73.0057 91.0652 73.2876C91.0521 73.0582 91.026 72.7173 91.0063 72.383ZM35.273 52.7432C35.273 52.7432 31.0739 42.2285 32.1531 36.2238C32.3297 35.2143 32.6698 34.3228 33.1996 33.6476C33.1996 33.6476 37.9547 34.1196 45.6335 42.6677C45.6335 42.6677 44.1749 43.3757 42.2193 44.8834C42.2193 44.8834 42.2062 44.8965 42.1996 44.8965C40.0739 46.5288 37.3595 49.1116 35.273 52.7432ZM53.0768 68.3646C53.0114 68.5022 52.6713 68.6464 52.2919 68.6989C51.9126 68.7579 50.7418 68.7185 50.0812 68.6399C47.7004 68.3252 45.1757 67.591 43.3377 66.6929C42.3043 66.1882 41.5652 65.6834 41.0158 65.1328L40.7018 64.805L40.6691 64.3789C40.6103 63.6382 40.6233 62.4648 40.7149 62.0518C40.7738 61.7044 40.8915 61.3635 41.0616 61.0619C41.1531 60.9505 41.1531 60.9505 41.5521 60.9505C42.0427 60.9505 42.4613 61.0292 43.135 61.2455C44.5151 61.6716 46.5688 62.7073 49.0739 64.215C51.1408 65.454 51.9126 66.0571 52.5078 66.8896C52.9068 67.414 53.1815 68.1417 53.0768 68.3646ZM79.5143 64.6477C79.4816 64.8247 78.9518 65.3688 78.4286 65.7621C76.8784 66.8962 74.1052 67.9581 71.2927 68.4629C69.6902 68.7579 68.0812 68.7972 67.6037 68.5612C67.2898 68.4039 67.244 68.2793 67.3552 67.8729C67.5906 67.0273 68.3559 66.1095 69.5463 65.2442C70.1546 64.805 72.6074 63.3104 73.752 62.6811C75.6357 61.6454 77.1662 61.0292 78.1931 60.8784C78.5201 60.8325 78.9126 60.8194 79.0369 60.8784C79.2396 60.957 79.462 61.5536 79.5536 62.2747C79.5928 62.6549 79.5732 64.3396 79.5143 64.6477ZM77.6502 44.8834L77.6306 44.8703C75.7469 43.3626 74.3341 42.6546 74.3341 42.6546C81.7512 34.1065 86.3428 33.6345 86.3428 33.6345C86.8464 34.3228 87.1735 35.1947 87.3501 36.2107C88.3966 42.2154 84.3414 52.7432 84.3414 52.7432C82.6473 49.7212 80.3712 47.0467 77.6502 44.8834Z" fill="#8B2AD3"/>
<path d="M87.3566 36.2108C86.4802 36.0993 82.3399 36.0731 77.6502 44.8834L77.6306 44.8703C75.7469 43.3626 74.3341 42.6546 74.3341 42.6546C81.7513 34.1065 86.3428 33.6345 86.3428 33.6345C86.853 34.3228 87.18 35.2012 87.3566 36.2108Z" fill="#B557FA"/>
<path d="M84.3545 52.7432C82.6474 49.7081 80.3843 47.0401 77.6568 44.8834C82.3465 36.0796 86.4737 36.0993 87.3632 36.2107C88.4032 42.2285 84.3545 52.7432 84.3545 52.7432Z" fill="#5A118F"/>
<path d="M87.5267 36.2501C87.4678 36.237 87.4155 36.2304 87.3566 36.2173L87.5267 36.2501Z" fill="#FF8300"/>
<path d="M45.6269 42.6546C45.6269 42.6546 44.1684 43.3626 42.2127 44.8703C42.2127 44.8703 42.1996 44.8834 42.1931 44.8834C37.3333 36.0665 33.0557 36.0993 32.14 36.2108C32.3166 35.2012 32.6567 34.3097 33.1865 33.6345C33.1931 33.6411 37.9547 34.1131 45.6269 42.6546Z" fill="#B557FA"/>
<path d="M42.2062 44.8834C40.0739 46.5222 37.3595 49.0984 35.273 52.7432C35.273 52.7432 31.0739 42.2285 32.1531 36.2107C33.0623 36.0993 37.3464 36.0796 42.2062 44.8834Z" fill="#5A118F"/>
<path d="M32.1531 36.2107C32.0942 36.2238 32.0288 36.2304 31.9765 36.2435L32.1531 36.2107Z" fill="#FF8300"/>
<path d="M72.9932 58.5839C72.9932 58.5839 69.4024 58.8068 69.8537 55.9945C70.305 53.1823 73.111 52.848 73.8958 52.9594C74.6807 53.0709 77.8203 54.1984 77.2643 56.5583C76.7018 58.9182 75.9169 58.4725 75.4656 58.5839C75.0143 58.6953 72.9932 58.5839 72.9932 58.5839Z" fill="#BE66FF"/>
<path d="M46.5165 58.5839C46.5165 58.5839 42.9256 58.8068 43.3769 55.9945C43.8283 53.1823 46.6342 52.848 47.4191 52.9594C48.204 53.0709 51.3435 54.1984 50.7876 56.5583C50.2251 58.9182 49.4402 58.4725 48.9889 58.5839C48.531 58.6953 46.5165 58.5839 46.5165 58.5839Z" fill="#BE66FF"/>
<path d="M112.828 73.4053H150.336L160.769 83.7968H413.573L448.545 48.9644" stroke="#8B2AD3" stroke-width="4" stroke-miterlimit="10"/>
<path d="M77 8L66.7639 18.2594H37.2734L14.2494 41.3649V81.7632L7 89V32.8784C16.6852 23.1421 22.1077 17.7072 31.7929 8H77Z" fill="#8B2AD3"/>
<path d="M382.305 83.9909L388.643 77.6784H406.844L431.676 52.946H444.547L413.572 83.7967H383.67L382.305 83.9909Z" fill="#8B2AD3"/>
</g>
<defs>
<clipPath id="clip0_0_4568">
<rect width="449" height="123" fill="white"/>
</clipPath>
</defs>
</svg>
