<svg width="449" height="123" viewBox="0 0 449 123" fill="none" xmlns="http://www.w3.org/2000/svg">
<g clip-path="url(#clip0_0_4541)">
<path d="M113 18V98.2805C103.263 107.926 97.8113 113.326 88.0743 123H7V42.7195C16.7371 33.0454 22.1887 27.6452 31.9257 18H113Z" fill="#8B2AD3" fill-opacity="0.4" stroke="#8B2AD3" stroke-width="4" stroke-miterlimit="10"/>
<path d="M112.828 83.4053H150.336L160.769 93.7968H413.573L448.545 58.9644" stroke="#8B2AD3" stroke-width="4" stroke-miterlimit="10"/>
<path d="M77 18L66.7639 28.2594H37.2734L14.2494 51.3649V91.7632L7 99V42.8784C16.6852 33.1421 22.1077 27.7072 31.7929 18H77Z" fill="#8B2AD3"/>
<path d="M382.305 93.9909L388.643 87.6784H406.844L431.676 62.946H444.547L413.572 93.7967H383.67L382.305 93.9909Z" fill="#8B2AD3"/>
<path d="M79.5143 75.6477C79.4816 75.8247 78.9518 76.3687 78.4286 76.7621C76.8784 77.8961 74.1052 78.9581 71.2927 79.4629C69.6902 79.7578 68.0812 79.7972 67.6037 79.5612C67.2898 79.4039 67.244 79.2793 67.3552 78.8729C67.5906 78.0272 68.3559 77.1095 69.5463 76.2442C70.1546 75.805 72.6074 74.3104 73.752 73.6811C75.6357 72.6453 77.1662 72.0291 78.1931 71.8784C78.5201 71.8325 78.9126 71.8194 79.0369 71.8784C79.2396 71.957 79.462 72.5535 79.5536 73.2746C79.5928 73.6548 79.5732 75.3396 79.5143 75.6477Z" fill="#450077"/>
<path d="M53.0768 79.3645C53.0114 79.5022 52.6713 79.6464 52.2919 79.6988C51.9126 79.7578 50.7418 79.7185 50.0812 79.6398C47.7004 79.3252 45.1757 78.591 43.3377 77.6929C42.3043 77.1881 41.5652 76.6834 41.0158 76.1327L40.7018 75.805L40.6691 75.3789C40.6102 74.6381 40.6233 73.4647 40.7149 73.0517C40.7738 72.7043 40.8915 72.3634 41.0615 72.0619C41.1531 71.9504 41.1531 71.9504 41.5521 71.9504C42.0427 71.9504 42.4613 72.0291 43.135 72.2454C44.515 72.6715 46.5688 73.7073 49.0739 75.215C51.1408 76.4539 51.9126 77.057 52.5078 77.8896C52.9068 78.414 53.1815 79.1416 53.0768 79.3645Z" fill="#450077"/>
<path d="M68.9707 95.0252C68.9707 95.058 68.8333 95.602 68.6698 96.2379C68.4998 96.8803 68.3689 97.3982 68.3689 97.4179C68.2447 97.431 68.1335 97.4375 68.0092 97.431H67.6495L67.1589 98.5978C66.8907 99.2402 66.6422 99.8368 66.6095 99.922L66.5441 100.079L66.3086 99.6991L66.0732 99.3189V96.2051L65.9816 96.2248C65.7919 96.2707 64.4314 96.4477 63.8362 96.5067C61.3769 96.7558 58.9111 96.6968 56.4649 96.3493C56.0724 96.2904 55.7323 96.251 55.7258 96.2576C55.7127 96.2707 55.7258 96.9918 55.7454 97.8767L55.7781 99.4762L55.5884 99.7712C55.4903 99.9286 55.3857 100.066 55.3857 100.073C55.353 100.106 55.2418 99.9286 54.9801 99.4107C54.6989 98.8732 54.4961 98.2963 54.3522 97.6997L54.2737 97.372L53.9271 97.3916L53.5804 97.4244L53.4889 97.0114C53.4431 96.7886 53.3908 96.4346 53.3646 96.2445L53.3319 95.8839L53.0376 95.6283C52.8675 95.484 52.704 95.3333 52.6647 95.3136C52.6059 95.2677 52.5862 95.1891 52.5862 95.1235V94.9858L53.986 94.999L55.3857 95.0121L55.4314 95.1563L55.4772 95.3005L55.9612 95.3202C56.2294 95.3333 57.0862 95.3529 57.845 95.3792L59.2447 95.4119L59.6044 94.8482L59.9772 94.2844H60.4482L60.4351 93.1176L60.422 91.9507L59.8072 91.682C57.8188 90.8036 56.6546 89.8006 56.2163 88.5879C56.1248 88.3388 56.1248 88.2535 56.1051 87.126C56.0921 86.0116 56.0921 85.9133 56.1705 85.6642C56.3275 85.1004 56.7657 84.6612 57.3282 84.517C57.5179 84.458 58.0216 84.458 60.6705 84.458L63.7905 84.4711L64.1371 84.6416C64.5492 84.8448 64.7454 84.989 64.9809 85.3036C65.249 85.6642 65.3275 85.9461 65.3275 86.6278C65.3275 87.6046 65.2621 88.4502 65.1575 88.7845C65.0136 89.2434 64.7846 89.6826 64.5034 90.0759C63.9409 90.797 62.9205 91.5181 61.9918 91.8393L61.7236 91.9376L61.7367 93.1176L61.7498 94.2975L61.9983 94.3172L62.2469 94.3369L62.5804 94.8416L62.9075 95.3464H64.4118C65.2425 95.3464 65.9685 95.3595 66.0405 95.3661C66.1516 95.3857 66.1778 95.3792 66.289 95.1891L66.4264 94.9858H67.7149C68.6764 94.9662 68.9707 94.9858 68.9707 95.0252Z" fill="#450077"/>
<path d="M63.0449 98.2505C62.829 98.375 62.6851 98.4275 62.6524 98.4078C62.6197 98.3947 62.4627 98.2636 62.2927 98.1391L61.9918 97.89L61.6779 98.2243C60.9911 98.965 60.9715 98.9978 60.7687 99.0109C60.4547 99.0437 60.3893 98.9912 60.0034 98.4144C59.8007 98.1194 59.6437 97.8768 59.6437 97.8768C59.6437 97.8768 59.4998 97.8572 59.3297 97.8441L59.0158 97.8113L58.8719 98.1128L58.728 98.4144L58.4729 98.3357C58.2702 98.2702 58.0674 98.1915 57.8777 98.0997L57.5441 97.9293V97.2869L60.5267 97.3L63.5092 97.3131L63.5223 97.6146C63.5223 97.9817 63.5354 97.9686 63.0449 98.2505Z" fill="black"/>
<path d="M91.0979 84.5301C91.0848 84.4842 91.0848 84.4055 91.0783 84.281C88.3835 83.986 80.6982 83.809 73.5623 89.7153C73.5623 89.7153 71.2599 79.1416 60.4874 79.1416C49.7149 79.1416 45.7185 89.7153 45.7185 89.7153C39.6815 83.2059 31.6037 83.6779 28.6866 84.104C28.6866 84.1695 28.6735 84.2482 28.6735 84.3203C28.5819 85.9526 28.6277 86.7261 28.8959 87.7487C29.7396 90.9543 32.3297 94.4876 36.3915 97.9488C43.0434 103.619 52.0695 107.71 58.9046 108.182C66.0274 108.667 76.5448 104.491 83.5499 98.3946C84.6488 97.4178 85.6822 96.3821 86.6502 95.2808C87.3435 94.4679 88.377 93.0782 88.2985 93.0782C88.2788 93.0782 88.2985 93.0585 88.3442 93.0323C88.377 93.0127 88.4097 92.9733 88.39 92.9537C88.377 92.9405 88.4031 92.9078 88.4358 92.8947C88.4685 92.8815 88.4947 92.8619 88.4816 92.8357C88.4685 92.816 88.4816 92.7898 88.5274 92.7767C88.5601 92.7635 88.5732 92.7308 88.5601 92.7111C88.547 92.6914 88.5601 92.6652 88.5797 92.6652C88.5993 92.6652 88.6255 92.6324 88.6255 92.6062C88.6255 92.5866 88.6451 92.5472 88.6713 92.5472C88.6909 92.5472 88.7171 92.5276 88.7171 92.5013C88.7498 92.4096 88.8086 92.3243 88.861 92.2457C89.031 91.99 89.7047 90.7838 89.7897 90.5806C90.4307 89.1319 90.8363 87.834 91.0259 86.5426C91.0848 85.9329 91.1437 84.7988 91.0979 84.5301ZM63.0448 98.2503C62.829 98.3749 62.6851 98.4273 62.6524 98.4077C62.6197 98.3946 62.4627 98.2635 62.2927 98.1389L61.9918 97.8898L61.6778 98.2241C60.9911 98.9649 60.9714 98.9977 60.7687 99.0108C60.4547 99.0435 60.3893 98.9911 60.0034 98.4142C59.8007 98.1192 59.6437 97.8767 59.6437 97.8767C59.6437 97.8767 59.4998 97.857 59.3297 97.8439L59.0158 97.8111L58.8719 98.1127L58.728 98.4142L58.4729 98.3356C58.2701 98.27 58.0674 98.1914 57.8777 98.0996L57.5441 97.9291V97.2867L60.5267 97.2998L63.5092 97.3129L63.5223 97.6145C63.5223 97.9816 63.5354 97.9685 63.0448 98.2503ZM68.6567 96.2248C68.4867 96.8672 68.3559 97.385 68.3559 97.4047C68.2316 97.4178 68.1204 97.4244 67.9961 97.4178H67.6364L67.1524 98.5978C66.8842 99.2402 66.6357 99.8367 66.603 99.922L66.5376 100.079L66.3021 99.6991L66.0666 99.3189V96.2051L65.9751 96.2248C65.7854 96.2706 64.4249 96.4476 63.8297 96.5066C61.3704 96.7557 58.9046 96.6967 56.4584 96.3493C56.0659 96.2903 55.7258 96.251 55.7193 96.2575C55.7062 96.2706 55.7193 96.9917 55.7389 97.8767L55.7716 99.4762L55.5819 99.7712C55.4838 99.9285 55.3791 100.066 55.3791 100.073C55.3464 100.106 55.2352 99.9285 54.9736 99.4106C54.6924 98.8731 54.4896 98.2962 54.3457 97.6997L54.2672 97.3719L53.9206 97.3916L53.5739 97.4244L53.4823 97.0114C53.4366 96.7885 53.3842 96.4345 53.3581 96.2444L53.3254 95.8839L53.031 95.6282C52.861 95.484 52.6975 95.3332 52.6582 95.3136C52.5993 95.2677 52.5797 95.189 52.5797 95.1235V94.9858L53.9794 94.9989L55.3791 95.012L55.4249 95.1562L55.4707 95.3005L55.9547 95.3201C56.2229 95.3332 57.0797 95.3529 57.8384 95.3791L59.2381 95.4119L59.5979 94.8481L59.9707 94.2844H60.4416L60.4286 93.1175L60.4155 91.9507L59.8006 91.6819C57.8123 90.8035 56.648 89.8005 56.2098 88.5878C56.1182 88.3387 56.1182 88.2535 56.0986 87.126C56.0855 86.0116 56.0855 85.9132 56.164 85.6641C56.321 85.1004 56.7592 84.6612 57.3217 84.517C57.5114 84.458 58.015 84.458 60.664 84.458L63.7839 84.4711L64.1306 84.6415C64.5427 84.8447 64.7389 84.9889 64.9743 85.3036C65.2425 85.6641 65.321 85.946 65.321 86.6278C65.321 87.6045 65.2556 88.4502 65.1509 88.7845C65.007 89.2433 64.7781 89.6826 64.4969 90.0759C63.9344 90.797 62.914 91.518 61.9852 91.8393L61.7171 91.9376L61.7302 93.1175L61.7432 94.2975L61.9918 94.3172L62.2403 94.3368L62.5739 94.8416L62.9009 95.3463H64.4053C65.236 95.3463 65.962 95.3595 66.0339 95.366C66.1451 95.3857 66.1713 95.3791 66.2825 95.189L66.4198 94.9858H67.7084C68.7091 94.9858 68.9969 94.9989 68.9969 95.0317C68.9707 95.0448 68.8203 95.5954 68.6567 96.2248Z" fill="#BE66FF"/>
<path d="M91.0063 83.383C90.9867 82.8782 90.9409 82.1702 90.9082 81.8228C90.4242 76.7162 89.1226 72.547 86.6568 68.1222C86.5587 67.9517 86.4671 67.7879 86.4082 67.6502C86.3886 67.6174 86.3755 67.5847 86.3624 67.5584C86.7091 66.5096 88.135 62.1372 89.2665 57.1355C90.8036 50.3442 91.7781 42.4057 88.7956 40.0195C88.7956 40.0195 83.635 39.6393 76.7215 46.4306C74.8443 48.312 73.1306 50.3442 71.6066 52.514L71.1226 52.3567C68.3428 51.4455 65.4584 50.8817 62.5478 50.6916C61.6713 50.626 58.4075 50.626 57.3414 50.6916C54.1233 50.9079 51.651 51.3865 48.845 52.3698C48.7338 52.4156 48.6292 52.4484 48.531 52.4812C46.9482 50.3245 45.1887 48.2989 43.2462 46.4438C36.0514 39.6197 30.7011 40.013 30.7011 40.013C27.5354 42.4778 28.6146 50.7768 30.2498 57.791C31.329 62.4387 32.6502 66.5161 33.1473 67.9911C33.1146 68.0697 33.0688 68.1615 33.0231 68.2402C30.4068 73.55 28.994 78.6631 28.6604 84.1106C31.5906 83.6845 39.6553 83.1994 45.7055 89.722C45.7055 89.722 49.7018 79.1482 60.4744 79.1482C71.2469 79.1482 73.5492 89.722 73.5492 89.722C80.6851 83.8156 88.3704 84.0057 91.0652 84.2876C91.0521 84.0582 91.026 83.7173 91.0063 83.383ZM35.273 63.7432C35.273 63.7432 31.0739 53.2285 32.1531 47.2238C32.3297 46.2143 32.6698 45.3228 33.1996 44.6476C33.1996 44.6476 37.9547 45.1196 45.6335 53.6677C45.6335 53.6677 44.1749 54.3757 42.2193 55.8834C42.2193 55.8834 42.2062 55.8965 42.1996 55.8965C40.0739 57.5288 37.3595 60.1116 35.273 63.7432ZM53.0768 79.3646C53.0114 79.5022 52.6713 79.6464 52.2919 79.6989C51.9126 79.7579 50.7418 79.7185 50.0812 79.6399C47.7004 79.3252 45.1757 78.591 43.3377 77.6929C42.3043 77.1882 41.5652 76.6834 41.0158 76.1328L40.7018 75.805L40.6691 75.3789C40.6103 74.6382 40.6233 73.4648 40.7149 73.0518C40.7738 72.7044 40.8915 72.3635 41.0616 72.0619C41.1531 71.9505 41.1531 71.9505 41.5521 71.9505C42.0427 71.9505 42.4613 72.0292 43.135 72.2455C44.5151 72.6716 46.5688 73.7073 49.0739 75.215C51.1408 76.454 51.9126 77.0571 52.5078 77.8896C52.9068 78.414 53.1815 79.1417 53.0768 79.3646ZM79.5143 75.6477C79.4816 75.8247 78.9518 76.3688 78.4286 76.7621C76.8784 77.8962 74.1052 78.9581 71.2927 79.4629C69.6902 79.7579 68.0812 79.7972 67.6037 79.5612C67.2898 79.4039 67.244 79.2793 67.3552 78.8729C67.5906 78.0273 68.3559 77.1095 69.5463 76.2442C70.1546 75.805 72.6073 74.3104 73.752 73.6811C75.6357 72.6454 77.1662 72.0292 78.1931 71.8784C78.5201 71.8325 78.9126 71.8194 79.0369 71.8784C79.2396 71.957 79.462 72.5536 79.5536 73.2747C79.5928 73.6549 79.5732 75.3396 79.5143 75.6477ZM77.6502 55.8834L77.6306 55.8703C75.7469 54.3626 74.3341 53.6546 74.3341 53.6546C81.7512 45.1065 86.3428 44.6345 86.3428 44.6345C86.8465 45.3228 87.1735 46.1947 87.3501 47.2107C88.3966 53.2154 84.3414 63.7432 84.3414 63.7432C82.6473 60.7212 80.3712 58.0467 77.6502 55.8834Z" fill="#8B2AD3"/>
<path d="M87.3566 47.2108C86.4802 47.0993 82.3399 47.0731 77.6502 55.8834L77.6306 55.8703C75.7469 54.3626 74.3341 53.6546 74.3341 53.6546C81.7513 45.1065 86.3428 44.6345 86.3428 44.6345C86.853 45.3228 87.18 46.2012 87.3566 47.2108Z" fill="#B557FA"/>
<path d="M84.3545 63.7432C82.6474 60.7081 80.3843 58.0401 77.6568 55.8834C82.3465 47.0796 86.4737 47.0993 87.3632 47.2107C88.4032 53.2285 84.3545 63.7432 84.3545 63.7432Z" fill="#5A118F"/>
<path d="M87.5267 47.2501C87.4678 47.237 87.4155 47.2304 87.3566 47.2173L87.5267 47.2501Z" fill="#FF8300"/>
<path d="M45.6269 53.6546C45.6269 53.6546 44.1684 54.3626 42.2127 55.8703C42.2127 55.8703 42.1996 55.8834 42.1931 55.8834C37.3333 47.0665 33.0557 47.0993 32.14 47.2108C32.3166 46.2012 32.6567 45.3097 33.1865 44.6345C33.1931 44.6411 37.9547 45.1131 45.6269 53.6546Z" fill="#B557FA"/>
<path d="M42.2062 55.8834C40.0739 57.5222 37.3595 60.0984 35.273 63.7432C35.273 63.7432 31.0739 53.2285 32.1531 47.2107C33.0623 47.0993 37.3464 47.0796 42.2062 55.8834Z" fill="#5A118F"/>
<path d="M32.1531 47.2107C32.0942 47.2238 32.0288 47.2304 31.9765 47.2435L32.1531 47.2107Z" fill="#FF8300"/>
<path d="M72.9932 69.5839C72.9932 69.5839 69.4024 69.8068 69.8537 66.9945C70.305 64.1823 73.111 63.848 73.8958 63.9594C74.6807 64.0709 77.8203 65.1984 77.2643 67.5583C76.7018 69.9182 75.9169 69.4725 75.4656 69.5839C75.0143 69.6953 72.9932 69.5839 72.9932 69.5839Z" fill="#BE66FF"/>
<path d="M46.5165 69.5839C46.5165 69.5839 42.9256 69.8068 43.3769 66.9945C43.8283 64.1823 46.6342 63.848 47.4191 63.9594C48.204 64.0709 51.3435 65.1984 50.7876 67.5583C50.2251 69.9182 49.4402 69.4725 48.9889 69.5839C48.531 69.6953 46.5165 69.5839 46.5165 69.5839Z" fill="#BE66FF"/>
</g>
<defs>
<clipPath id="clip0_0_4541">
<rect width="449" height="123" fill="white"/>
</clipPath>
</defs>
</svg>
