<svg width="444" height="109" viewBox="0 0 444 109" fill="none" xmlns="http://www.w3.org/2000/svg">
<path d="M108 2V82.2805C98.2629 91.9257 92.8113 97.3259 83.0743 107H2V26.7195C11.7371 17.0454 17.1887 11.6452 26.9257 2H108Z" fill="#8B2AD3" fill-opacity="0.4" stroke="#8B2AD3" stroke-width="4" stroke-miterlimit="10"/>
<path d="M107.828 67.4053H145.336L155.769 77.7968H408.573L443.545 42.9644" stroke="#8B2AD3" stroke-width="4" stroke-miterlimit="10"/>
<path d="M72 2L61.7639 12.2594H32.2734L9.24938 35.3649V75.7632L2 83V26.8784C11.6852 17.1421 17.1077 11.7072 26.7929 2H72Z" fill="#8B2AD3"/>
<path d="M377.305 77.9909L383.643 71.6784H401.844L426.676 46.946H439.547L408.572 77.7967H378.67L377.305 77.9909Z" fill="#8B2AD3"/>
<g clip-path="url(#clip0_184_25)">
<path d="M43.4511 30.432C42.5776 30.3066 42.536 30.2648 42.952 30.223C43.7422 30.0976 45.5723 30.2648 46.8616 30.5574C49.8563 31.2679 52.5598 33.1069 55.4297 36.3252L56.1783 37.2029L57.2597 37.0357C61.8765 36.2834 66.618 36.8685 70.5693 38.7076C71.6507 39.2091 73.356 40.2122 73.564 40.463C73.6471 40.5466 73.7719 41.0899 73.8551 41.6332C74.1463 43.5976 74.0215 45.0605 73.3976 46.189C73.0648 46.8159 73.0648 46.9831 73.2728 47.5264C73.4392 47.9444 73.9383 48.237 74.3958 48.237C75.394 48.237 76.4338 46.6487 76.9329 44.4336L77.1409 43.5558L77.5152 43.9738C79.6364 46.3562 81.3001 49.658 81.5497 51.9986L81.6329 52.6255L81.2585 52.0822C80.6347 51.1209 80.0524 50.4939 79.2621 49.9506C77.848 48.9893 76.3506 48.6967 72.3994 48.4877C68.8224 48.2788 66.7844 47.9862 64.788 47.3175C61.3774 46.189 59.6305 44.7261 55.596 39.3345C53.8076 36.9521 52.6846 35.6565 51.5616 34.5698C49.1076 32.1874 46.6537 30.9336 43.4511 30.432Z" fill="#8B2AD3"/>
<path d="M74.4372 35.74C74.5204 34.1518 74.7284 33.1069 75.1859 32.1456C75.3523 31.7694 75.5186 31.4351 75.5602 31.4351C75.6018 31.4351 75.5186 31.7276 75.3938 32.062C75.0611 32.9815 75.0195 34.2772 75.2275 35.74C75.5186 37.6208 75.6434 37.8716 77.6398 39.9196C78.5549 40.8809 79.6363 42.093 80.0522 42.5945L80.7593 43.514L80.0522 42.8453C79.1788 42.0094 77.1823 40.4211 76.7248 40.2121C76.4337 40.045 76.3921 40.045 76.1841 40.2539C76.0177 40.4211 75.9761 40.6719 75.9761 41.884C75.9345 43.7648 75.685 44.9351 75.0611 46.1471C74.7284 46.7741 74.6868 46.6487 74.9779 45.9382C75.1859 45.3948 75.2275 45.144 75.2275 43.3468C75.2275 39.7106 74.8116 38.8329 72.2744 37.37C71.6505 36.9939 70.5691 36.4505 69.9452 36.158C69.2798 35.8654 68.7807 35.6146 68.8222 35.6146C68.9054 35.531 71.3594 36.2416 72.316 36.6595C73.7717 37.2447 74.0213 37.2865 74.1877 37.2447C74.3124 37.1193 74.3956 36.7849 74.4372 35.74Z" fill="#8B2AD3"/>
<path d="M45.1562 41.9675C43.4093 39.5434 42.2863 35.7818 42.5358 32.9815L42.619 32.1038L43.0349 32.1874C43.7836 32.3127 45.073 32.8143 45.6969 33.1904C47.3606 34.1935 48.1092 35.5728 48.8163 39C49.0242 40.0031 49.3154 41.1734 49.4402 41.5496C49.6481 42.1765 50.4384 43.6394 51.1039 44.5589C51.5614 45.2276 51.2702 45.562 50.2304 45.4784C48.6499 45.3112 46.5287 43.8483 45.1562 41.9675Z" fill="#8B2AD3"/>
<path d="M72.3162 60.1487C64.0809 56.805 61.1694 53.9211 61.1694 49.031C61.1694 48.3205 61.211 47.7354 61.211 47.7354C61.2526 47.7354 61.5438 47.9861 61.9181 48.2787C63.5818 49.6162 65.4534 50.2013 70.6525 50.9536C73.6887 51.4134 75.4356 51.7477 77.0161 52.2911C82.0488 53.9629 85.1682 57.3901 85.9169 62.0295C86.1249 63.3669 86.0001 65.9165 85.6674 67.2539C85.3762 68.2988 84.5444 70.2214 84.3364 70.2632C84.2948 70.2632 84.2116 70.0542 84.2116 69.7199C84.1284 67.9645 83.255 66.2926 81.7993 64.997C80.0524 63.4923 77.8064 62.3638 72.3162 60.1487Z" fill="#8B2AD3"/>
<path d="M66.4931 61.5279C66.4099 60.9009 66.2019 60.1068 66.0772 59.7724L65.8692 59.1455L66.2435 59.6053C66.7842 60.2322 67.2002 60.9845 67.5745 62.0294C67.8656 62.8235 67.8656 63.0743 67.8656 64.37C67.8656 65.6238 67.824 65.9164 67.5745 66.6269C67.1586 67.7554 66.6595 68.5495 65.8276 69.4272C64.3303 70.9737 62.3754 71.8096 59.5888 72.1858C59.0896 72.2275 57.6755 72.3529 56.4277 72.4365C53.3083 72.6037 51.2287 72.9381 49.357 73.6068C49.1075 73.6904 48.8579 73.774 48.8163 73.7322C48.7331 73.6486 50.0225 72.8963 51.0623 72.3947C52.5181 71.6842 54.0154 71.308 57.3012 70.7229C58.9233 70.4721 60.587 70.1378 61.0029 69.9706C65.1205 68.6749 67.1586 65.4567 66.4931 61.5279Z" fill="#8B2AD3"/>
<path d="M70.278 68.257C69.1966 65.8746 68.947 63.6177 69.5293 61.4861C69.6125 61.2771 69.6957 61.0681 69.7789 61.0681C69.8621 61.0681 70.1116 61.1935 70.3612 61.3607C70.8603 61.695 71.9001 62.2802 74.562 63.743C77.931 65.582 79.8442 67.0031 81.1752 68.6331C82.3398 70.0542 83.0469 71.6842 83.3796 73.6904C83.5876 74.8189 83.4628 77.5356 83.1716 78.6641C82.2566 82.2167 80.177 85.0588 77.1407 86.6889C76.6832 86.9396 76.3089 87.1068 76.2673 87.1068C76.2257 87.1068 76.3921 86.6889 76.6416 86.1873C77.6399 84.0557 77.7646 82.0077 77.016 79.709C76.5585 78.2879 75.6018 76.5743 73.6886 73.6904C71.401 70.3468 70.8603 69.469 70.278 68.257Z" fill="#8B2AD3"/>
<path d="M39.2917 81.0465C42.3695 78.4552 46.1544 76.6162 49.6482 76.031C51.1455 75.7803 53.641 75.8639 55.0136 76.24C57.218 76.8252 59.2144 78.079 60.2542 79.6255C61.2524 81.1301 61.71 82.4258 62.1675 85.3097C62.3338 86.4382 62.5418 87.6084 62.5834 87.8592C62.9161 89.3639 63.5816 90.5341 64.4135 91.1611C65.7028 92.1224 67.9488 92.1642 70.1532 91.3283C70.5275 91.2029 70.8603 91.0775 70.8603 91.1193C70.9435 91.2029 69.8205 91.9552 69.0718 92.3314C68.032 92.8747 67.2002 93.0419 66.0772 93.0419C64.0807 93.0419 62.3754 91.997 61.0029 89.9072C60.7117 89.4892 60.1294 88.2772 59.6303 87.1487C58.1746 83.7632 57.4259 82.7601 55.7206 81.6317C54.2233 80.6704 52.3101 80.4614 50.8543 81.1719C48.9411 82.0914 48.442 84.5574 49.7729 86.062C50.3136 86.6889 51.3119 87.1905 52.1437 87.3159C53.6826 87.5248 55.0136 86.3128 55.0136 84.7663C55.0136 83.7632 54.6392 83.1781 53.641 82.7183C52.3101 82.1332 50.8543 82.8019 50.8959 84.0976C50.8959 84.6409 51.1455 84.9753 51.6862 85.2261C52.0189 85.3933 52.0189 85.3933 51.7694 85.3515C50.5632 85.1007 50.272 83.5961 51.2287 82.6348C52.3933 81.4645 54.8472 81.966 55.6791 83.5961C56.0118 84.2648 56.0534 85.6023 55.7622 86.4382C55.0552 88.2772 53.0587 89.2385 51.0207 88.6951C49.6482 88.319 49.0659 87.9428 47.4022 86.2292C44.4907 83.2199 43.3677 82.6348 39.2085 82.0078L38.4182 81.8824L39.2917 81.0465Z" fill="#8B2AD3"/>
<path fill-rule="evenodd" clip-rule="evenodd" d="M17.4138 13.7972C27.1048 25.6254 42.0365 44.0155 42.7852 45.0186C43.409 45.8545 43.1595 46.6486 42.1197 47.2337C41.5374 47.5681 40.3312 47.9025 39.7489 47.9025C39.0834 47.9025 38.2932 47.5681 37.7525 47.0248C37.3781 46.6486 35.756 44.2663 32.0959 38.5402C29.3092 34.1517 26.9385 30.5155 26.8969 30.4737C26.7305 30.3901 26.7305 30.3901 31.8048 39.5015C35.0074 45.2276 36.0472 47.2755 36.0472 47.5263C36.0472 48.0697 35.8808 48.3622 35.2153 49.1146C34.0923 50.3684 33.5932 51.7895 33.2189 54.757C32.803 58.0588 31.68 60.3994 28.4774 64.37C26.6057 66.7105 26.3146 67.1285 25.8571 68.0898C25.2748 69.2601 25.1084 69.9288 25.0252 71.4334C24.942 73.0217 25.1084 74.0248 25.5659 75.5294C25.9818 76.8669 26.4393 77.7446 27.5623 79.4582C28.519 80.9628 29.1013 82.0913 29.1013 82.5093C29.1013 82.8437 29.1844 82.8437 30.6818 82.5093C34.2587 81.6734 37.2118 80.2523 38.8339 78.4969C39.8321 77.4102 40.0817 76.8251 40.0817 75.3204C40.0817 74.3591 40.0401 74.1502 39.7905 73.565C39.3746 72.6455 38.5843 71.8932 36.879 70.7229C34.633 69.1765 33.6764 67.9226 33.4269 66.2508C33.2189 64.8297 33.4685 63.8684 34.7162 61.2353C36.0056 58.5186 36.3383 57.3901 36.5463 54.6316C36.6711 52.8762 36.879 52.1656 37.3781 51.6223C37.9188 51.0372 38.3764 50.8282 39.6657 50.661C41.7869 50.3684 43.1595 49.8251 44.2409 48.7802C45.1975 47.9025 45.6134 47.0248 45.655 45.7291L45.6966 44.7678L45.1559 44.1827C43.2011 41.9257 16.1244 12 15.9997 12C15.9581 12 16.6235 12.7941 17.4138 13.7972ZM30.1827 73.2306C30.6402 72.4365 30.3906 71.4334 29.642 70.9319C28.9349 70.4721 27.8535 70.6811 27.8535 71.308C27.8535 71.4752 27.9367 71.6424 28.1862 71.726C28.5606 71.935 28.6021 72.144 28.311 72.6037C28.0199 73.0635 28.0199 73.4814 28.3942 73.774C28.9765 74.2337 29.7667 73.983 30.1827 73.2306Z" fill="#8B2AD3"/>
<path fill-rule="evenodd" clip-rule="evenodd" d="M47.0278 51.2462C46.0296 51.5388 45.073 52.6255 44.7818 53.7122C44.6154 54.3809 44.6986 55.593 44.9898 55.9691C45.4473 56.5543 45.8632 56.7214 47.0278 56.7214C49.3154 56.7214 51.2702 55.7183 51.4782 54.5063C51.6862 53.5032 50.8127 52.1239 49.6065 51.497C48.9826 51.1626 47.6933 51.0372 47.0278 51.2462ZM49.6897 53.336C50.0225 52.8344 49.8977 52.2911 49.2738 51.9149C48.1508 51.2044 46.4455 51.7896 46.4455 52.8762C46.4455 53.4196 47.319 54.0047 48.1508 54.0047C48.6915 54.0047 49.4402 53.6704 49.6897 53.336Z" fill="#8B2AD3"/>
</g>
<defs>
<clipPath id="clip0_184_25">
<rect width="70" height="72" fill="white" transform="translate(16 21)"/>
</clipPath>
</defs>
</svg>
