<svg width="444" height="109" viewBox="0 0 444 109" fill="none" xmlns="http://www.w3.org/2000/svg">
<path d="M108 2V82.2805C98.2629 91.9257 92.8113 97.3259 83.0743 107H2V26.7195C11.7371 17.0454 17.1887 11.6452 26.9257 2H108Z" fill="#8B2AD3" fill-opacity="0.4" stroke="#8B2AD3" stroke-width="4" stroke-miterlimit="10"/>
<path d="M107.828 67.4053H145.336L155.769 77.7968H408.573L443.545 42.9644" stroke="#8B2AD3" stroke-width="4" stroke-miterlimit="10"/>
<path d="M72 2L61.7639 12.2594H32.2734L9.24938 35.3649V75.7632L2 83V26.8784C11.6852 17.1421 17.1077 11.7072 26.7929 2H72Z" fill="#8B2AD3"/>
<path d="M377.305 77.9909L383.643 71.6784H401.844L426.676 46.946H439.547L408.572 77.7967H378.67L377.305 77.9909Z" fill="#8B2AD3"/>
<path d="M89.8531 64.0338L74.2964 37.1965C70.8618 31.6179 62.5783 31.5174 59.2952 37.4478L42.9303 65.3907C39.8998 70.5169 43.6375 76.9498 49.749 76.9498H82.4788C88.6409 76.9498 93.2372 70.3159 89.8531 64.0338Z" fill="white"/>
<path d="M67.3765 66.1445L66.4169 64.486C65.5077 62.928 63.5379 59.6111 63.5379 59.6111L50.355 36.8446C47.7286 32.8743 42.3746 31.8189 38.3844 34.4323C37.1217 35.2364 36.1115 36.3923 35.4549 37.7492L20.1507 64.1342C17.7768 68.205 19.1911 73.4318 23.3328 75.7938C24.646 76.5477 26.1108 76.9497 27.626 76.9497H82.3272C73.8922 77 71.2152 72.6276 67.3765 66.1445Z" fill="white"/>
<path d="M67.3765 66.1444L66.4169 64.4859C65.5077 62.9279 63.5379 59.611 63.5379 59.611L55.0524 44.7349L42.8292 65.4408C39.7987 70.567 43.5363 76.9999 49.6479 76.9999H82.3272C73.8417 76.9497 71.2152 72.6275 67.3765 66.1444Z" fill="url(#paint0_linear_184_26)"/>
<defs>
<linearGradient id="paint0_linear_184_26" x1="38.5197" y1="56.0357" x2="76.2901" y2="70.0595" gradientUnits="userSpaceOnUse">
<stop stop-color="#E339FF" stop-opacity="0.4"/>
<stop offset="1" stop-color="#8B2AD3"/>
</linearGradient>
</defs>
</svg>
