<svg width="444" height="109" viewBox="0 0 444 109" fill="none" xmlns="http://www.w3.org/2000/svg">
<path d="M108 2V82.2805C98.2629 91.9257 92.8113 97.3259 83.0743 107H2V26.7195C11.7371 17.0454 17.1887 11.6452 26.9257 2H108Z" fill="#8B2AD3" fill-opacity="0.4" stroke="#8B2AD3" stroke-width="4" stroke-miterlimit="10"/>
<path d="M47.2089 57.9405L46.5854 57.3216C46.1133 56.8567 45.3022 57.1859 45.3022 57.8451V66.6842C45.3022 67.0924 45.6419 67.4246 46.057 67.4246H55.0235C55.692 67.4246 56.0285 66.6261 55.5532 66.1619C55.26 65.8729 55.26 65.4048 55.5532 65.1164L65.09 55.6839C65.3838 55.3965 65.3838 54.9286 65.09 54.6383L64.2211 53.7847C63.749 53.3197 64.0855 52.5212 64.7521 52.5212H73.7132C74.1276 52.5212 74.4667 52.8529 74.4667 53.2615V62.0998C74.4667 62.759 73.6541 63.089 73.181 62.6234L72.5769 62.0281C72.2819 61.7309 71.8073 61.7309 71.5185 62.0281L55.4395 77.8748C55.1477 78.1632 54.6738 78.1632 54.378 77.8748L34.7065 58.478C34.4108 58.1864 34.4108 57.7177 34.7065 57.4281L61.9386 30.5776C62.2311 30.2886 62.2311 29.8169 61.9386 29.5292L55.5352 23.2158C55.242 22.9281 54.7674 22.9281 54.4729 23.2158L19.2189 57.9785C18.927 58.2676 18.927 58.7392 19.2189 59.0269L54.4693 93.7845C54.7625 94.0718 55.241 94.0718 55.5329 93.7845L90.7815 59.0269C91.0728 58.7379 91.0728 58.2688 90.7815 57.9808L70.0433 37.5322C69.7533 37.2444 69.2762 37.2444 68.9824 37.5322L48.2761 57.9407C47.9804 58.2323 47.5047 58.2323 47.2089 57.9407V57.9405Z" fill="white"/>
<path d="M72 2L61.7639 12.2594H32.2734L9.24938 35.3649V75.7632L2 83V26.8784C11.6852 17.1421 17.1077 11.7072 26.7929 2H72Z" fill="#8B2AD3"/>
<path d="M107.828 67.4053H145.336L155.769 77.7968H408.573L443.545 42.9644" stroke="#8B2AD3" stroke-width="4" stroke-miterlimit="10"/>
<path d="M377.305 77.9909L383.643 71.6784H401.844L426.676 46.946H439.547L408.572 77.7967H378.67L377.305 77.9909Z" fill="#8B2AD3"/>
</svg>
