<svg width="449" height="123" viewBox="0 0 449 123" fill="none" xmlns="http://www.w3.org/2000/svg">
<g clip-path="url(#clip0_0_4568)">
<path d="M113 8V88.2805C103.263 97.9257 97.8113 103.326 88.0743 113H7V32.7195C16.7371 23.0454 22.1887 17.6452 31.9257 8H113Z" fill="#8B2AD3" fill-opacity="0.4" stroke="#8B2AD3" stroke-width="4" stroke-miterlimit="10"/>
<path d="M79.5143 64.6477C79.4816 64.8247 78.9518 65.3687 78.4286 65.7621C76.8784 66.8961 74.1052 67.9581 71.2927 68.4629C69.6902 68.7578 68.0812 68.7972 67.6037 68.5612C67.2898 68.4039 67.244 68.2793 67.3552 67.8729C67.5906 67.0272 68.3559 66.1095 69.5463 65.2442C70.1546 64.805 72.6074 63.3104 73.752 62.6811C75.6357 61.6453 77.1662 61.0291 78.1931 60.8784C78.5201 60.8325 78.9126 60.8194 79.0369 60.8784C79.2396 60.957 79.462 61.5535 79.5536 62.2746C79.5928 62.6548 79.5732 64.3396 79.5143 64.6477Z" fill="#450077"/>
<path d="M53.0768 68.3645C53.0114 68.5022 52.6713 68.6464 52.2919 68.6988C51.9126 68.7578 50.7418 68.7185 50.0812 68.6398C47.7004 68.3252 45.1757 67.591 43.3377 66.6929C42.3043 66.1881 41.5652 65.6834 41.0158 65.1327L40.7018 64.805L40.6691 64.3789C40.6102 63.6381 40.6233 62.4647 40.7149 62.0517C40.7738 61.7043 40.8915 61.3634 41.0615 61.0619C41.1531 60.9504 41.1531 60.9504 41.5521 60.9504C42.0427 60.9504 42.4613 61.0291 43.135 61.2454C44.515 61.6715 46.5688 62.7073 49.0739 64.215C51.1408 65.4539 51.9126 66.057 52.5078 66.8896C52.9068 67.414 53.1815 68.1416 53.0768 68.3645Z" fill="#450077"/>
<path d="M68.9707 84.0252C68.9707 84.058 68.8333 84.602 68.6698 85.2379C68.4998 85.8803 68.3689 86.3982 68.3689 86.4179C68.2447 86.431 68.1335 86.4375 68.0092 86.431H67.6495L67.1589 87.5978C66.8907 88.2402 66.6422 88.8368 66.6095 88.922L66.5441 89.0793L66.3086 88.6991L66.0732 88.3189V85.2051L65.9816 85.2248C65.7919 85.2707 64.4314 85.4477 63.8362 85.5067C61.3769 85.7558 58.9111 85.6968 56.4649 85.3493C56.0724 85.2904 55.7323 85.251 55.7258 85.2576C55.7127 85.2707 55.7258 85.9918 55.7454 86.8767L55.7781 88.4762L55.5884 88.7712C55.4903 88.9286 55.3857 89.0662 55.3857 89.0728C55.353 89.1055 55.2418 88.9286 54.9801 88.4107C54.6989 87.8732 54.4961 87.2963 54.3522 86.6997L54.2737 86.372L53.9271 86.3916L53.5804 86.4244L53.4889 86.0114C53.4431 85.7886 53.3908 85.4346 53.3646 85.2445L53.3319 84.8839L53.0376 84.6283C52.8675 84.484 52.704 84.3333 52.6647 84.3136C52.6059 84.2677 52.5862 84.1891 52.5862 84.1235V83.9858L53.986 83.999L55.3857 84.0121L55.4314 84.1563L55.4772 84.3005L55.9612 84.3202C56.2294 84.3333 57.0862 84.3529 57.845 84.3792L59.2447 84.4119L59.6044 83.8482L59.9772 83.2844H60.4482L60.4351 82.1176L60.422 80.9507L59.8072 80.682C57.8188 79.8036 56.6546 78.8006 56.2163 77.5879C56.1248 77.3388 56.1248 77.2535 56.1051 76.126C56.0921 75.0116 56.0921 74.9133 56.1705 74.6642C56.3275 74.1004 56.7657 73.6612 57.3282 73.517C57.5179 73.458 58.0216 73.458 60.6705 73.458L63.7905 73.4711L64.1371 73.6416C64.5492 73.8448 64.7454 73.989 64.9809 74.3036C65.249 74.6642 65.3275 74.9461 65.3275 75.6278C65.3275 76.6046 65.2621 77.4502 65.1575 77.7845C65.0136 78.2434 64.7846 78.6826 64.5034 79.0759C63.9409 79.797 62.9205 80.5181 61.9918 80.8393L61.7236 80.9376L61.7367 82.1176L61.7498 83.2975L61.9983 83.3172L62.2469 83.3369L62.5804 83.8416L62.9075 84.3464H64.4118C65.2425 84.3464 65.9685 84.3595 66.0405 84.3661C66.1516 84.3857 66.1778 84.3792 66.289 84.1891L66.4264 83.9858H67.7149C68.6764 83.9662 68.9707 83.9858 68.9707 84.0252Z" fill="#450077"/>
<path d="M63.0449 87.2505C62.829 87.375 62.6851 87.4275 62.6524 87.4078C62.6197 87.3947 62.4627 87.2636 62.2927 87.1391L61.9918 86.89L61.6779 87.2243C60.9911 87.965 60.9715 87.9978 60.7687 88.0109C60.4547 88.0437 60.3893 87.9912 60.0034 87.4144C59.8007 87.1194 59.6437 86.8768 59.6437 86.8768C59.6437 86.8768 59.4998 86.8572 59.3297 86.8441L59.0158 86.8113L58.8719 87.1128L58.728 87.4144L58.4729 87.3357C58.2702 87.2702 58.0674 87.1915 57.8777 87.0997L57.5441 86.9293V86.2869L60.5267 86.3L63.5092 86.3131L63.5223 86.6146C63.5223 86.9817 63.5354 86.9686 63.0449 87.2505Z" fill="black"/>
<path d="M91.0979 73.5301C91.0848 73.4842 91.0848 73.4055 91.0783 73.281C88.3835 72.986 80.6982 72.809 73.5623 78.7153C73.5623 78.7153 71.2599 68.1416 60.4874 68.1416C49.7149 68.1416 45.7185 78.7153 45.7185 78.7153C39.6815 72.2059 31.6037 72.6779 28.6866 73.104C28.6866 73.1695 28.6735 73.2482 28.6735 73.3203C28.5819 74.9526 28.6277 75.7261 28.8959 76.7487C29.7396 79.9543 32.3297 83.4876 36.3915 86.9488C43.0434 92.6192 52.0695 96.7097 58.9046 97.1817C66.0274 97.6667 76.5448 93.491 83.5499 87.3946C84.6488 86.4178 85.6822 85.3821 86.6502 84.2808C87.3435 83.4679 88.377 82.0782 88.2985 82.0782C88.2788 82.0782 88.2985 82.0585 88.3442 82.0323C88.377 82.0127 88.4097 81.9733 88.39 81.9537C88.377 81.9405 88.4031 81.9078 88.4358 81.8947C88.4685 81.8815 88.4947 81.8619 88.4816 81.8357C88.4685 81.816 88.4816 81.7898 88.5274 81.7767C88.5601 81.7635 88.5732 81.7308 88.5601 81.7111C88.547 81.6914 88.5601 81.6652 88.5797 81.6652C88.5993 81.6652 88.6255 81.6324 88.6255 81.6062C88.6255 81.5866 88.6451 81.5472 88.6713 81.5472C88.6909 81.5472 88.7171 81.5276 88.7171 81.5013C88.7498 81.4096 88.8086 81.3243 88.861 81.2457C89.031 80.99 89.7047 79.7838 89.7897 79.5806C90.4307 78.1319 90.8363 76.834 91.0259 75.5426C91.0848 74.9329 91.1437 73.7988 91.0979 73.5301ZM63.0448 87.2503C62.829 87.3749 62.6851 87.4273 62.6524 87.4077C62.6197 87.3946 62.4627 87.2635 62.2927 87.1389L61.9918 86.8898L61.6778 87.2241C60.9911 87.9649 60.9714 87.9977 60.7687 88.0108C60.4547 88.0435 60.3893 87.9911 60.0034 87.4142C59.8007 87.1192 59.6437 86.8767 59.6437 86.8767C59.6437 86.8767 59.4998 86.857 59.3297 86.8439L59.0158 86.8111L58.8719 87.1127L58.728 87.4142L58.4729 87.3356C58.2701 87.27 58.0674 87.1914 57.8777 87.0996L57.5441 86.9291V86.2867L60.5267 86.2998L63.5092 86.3129L63.5223 86.6145C63.5223 86.9816 63.5354 86.9685 63.0448 87.2503ZM68.6568 85.2248C68.4867 85.8672 68.3559 86.385 68.3559 86.4047C68.2316 86.4178 68.1204 86.4244 67.9961 86.4178H67.6364L67.1524 87.5978C66.8842 88.2402 66.6357 88.8367 66.603 88.922L66.5376 89.0793L66.3021 88.6991L66.0666 88.3189V85.2051L65.9751 85.2248C65.7854 85.2706 64.4249 85.4476 63.8297 85.5066C61.3704 85.7557 58.9046 85.6967 56.4584 85.3493C56.0659 85.2903 55.7258 85.251 55.7193 85.2575C55.7062 85.2706 55.7193 85.9917 55.7389 86.8767L55.7716 88.4762L55.5819 88.7712C55.4838 88.9285 55.3791 89.0662 55.3791 89.0727C55.3464 89.1055 55.2352 88.9285 54.9736 88.4106C54.6924 87.8731 54.4896 87.2962 54.3457 86.6997L54.2672 86.3719L53.9206 86.3916L53.5739 86.4244L53.4823 86.0114C53.4365 85.7885 53.3842 85.4345 53.3581 85.2444L53.3254 84.8839L53.031 84.6282C52.861 84.484 52.6975 84.3332 52.6582 84.3136C52.5993 84.2677 52.5797 84.189 52.5797 84.1235V83.9858L53.9794 83.9989L55.3791 84.012L55.4249 84.1562L55.4707 84.3005L55.9547 84.3201C56.2229 84.3332 57.0797 84.3529 57.8384 84.3791L59.2381 84.4119L59.5979 83.8481L59.9707 83.2844H60.4416L60.4286 82.1175L60.4155 80.9507L59.8006 80.6819C57.8123 79.8035 56.648 78.8005 56.2098 77.5878C56.1182 77.3387 56.1182 77.2535 56.0986 76.126C56.0855 75.0116 56.0855 74.9132 56.164 74.6641C56.321 74.1004 56.7592 73.6612 57.3217 73.517C57.5114 73.458 58.015 73.458 60.664 73.458L63.7839 73.4711L64.1306 73.6415C64.5427 73.8447 64.7389 73.9889 64.9743 74.3036C65.2425 74.6641 65.321 74.946 65.321 75.6278C65.321 76.6045 65.2556 77.4502 65.1509 77.7845C65.007 78.2433 64.7781 78.6826 64.4969 79.0759C63.9344 79.797 62.914 80.518 61.9852 80.8393L61.7171 80.9376L61.7302 82.1175L61.7432 83.2975L61.9918 83.3172L62.2403 83.3368L62.5739 83.8416L62.9009 84.3463H64.4053C65.236 84.3463 65.962 84.3595 66.0339 84.366C66.1451 84.3857 66.1713 84.3791 66.2825 84.189L66.4198 83.9858H67.7084C68.7091 83.9858 68.9969 83.9989 68.9969 84.0317C68.9707 84.0448 68.8203 84.5954 68.6568 85.2248Z" fill="white"/>
<path d="M91.0063 72.383C90.9867 71.8782 90.9409 71.1702 90.9082 70.8228C90.4242 65.7162 89.1226 61.547 86.6568 57.1222C86.5587 56.9517 86.4671 56.7879 86.4082 56.6502C86.3886 56.6174 86.3755 56.5847 86.3624 56.5584C86.7091 55.5096 88.135 51.1372 89.2665 46.1355C90.8036 39.3442 91.7781 31.4057 88.7956 29.0195C88.7956 29.0195 83.635 28.6393 76.7215 35.4306C74.8443 37.312 73.1306 39.3442 71.6066 41.514L71.1226 41.3567C68.3428 40.4455 65.4584 39.8817 62.5478 39.6916C61.6713 39.626 58.4075 39.626 57.3414 39.6916C54.1233 39.9079 51.651 40.3865 48.845 41.3698C48.7338 41.4156 48.6292 41.4484 48.531 41.4812C46.9482 39.3245 45.1887 37.2989 43.2462 35.4438C36.0514 28.6197 30.7011 29.013 30.7011 29.013C27.5354 31.4778 28.6146 39.7768 30.2498 46.791C31.329 51.4387 32.6502 55.5161 33.1473 56.9911C33.1146 57.0697 33.0688 57.1615 33.0231 57.2402C30.4068 62.55 28.994 67.6631 28.6604 73.1106C31.5906 72.6845 39.6553 72.1994 45.7055 78.7219C45.7055 78.7219 49.7018 68.1482 60.4744 68.1482C71.2469 68.1482 73.5492 78.7219 73.5492 78.7219C80.6851 72.8156 88.3704 73.0057 91.0652 73.2876C91.0521 73.0582 91.026 72.7173 91.0063 72.383ZM35.273 52.7432C35.273 52.7432 31.0739 42.2285 32.1531 36.2238C32.3297 35.2143 32.6698 34.3228 33.1996 33.6476C33.1996 33.6476 37.9547 34.1196 45.6335 42.6677C45.6335 42.6677 44.1749 43.3757 42.2193 44.8834C42.2193 44.8834 42.2062 44.8965 42.1996 44.8965C40.0739 46.5288 37.3595 49.1116 35.273 52.7432ZM53.0768 68.3646C53.0114 68.5022 52.6713 68.6464 52.2919 68.6989C51.9126 68.7579 50.7418 68.7185 50.0812 68.6399C47.7004 68.3252 45.1757 67.591 43.3377 66.6929C42.3043 66.1882 41.5652 65.6834 41.0158 65.1328L40.7018 64.805L40.6691 64.3789C40.6103 63.6382 40.6233 62.4648 40.7149 62.0518C40.7738 61.7044 40.8915 61.3635 41.0616 61.0619C41.1531 60.9505 41.1531 60.9505 41.5521 60.9505C42.0427 60.9505 42.4613 61.0292 43.135 61.2455C44.5151 61.6716 46.5688 62.7073 49.0739 64.215C51.1408 65.454 51.9126 66.0571 52.5078 66.8896C52.9068 67.414 53.1815 68.1417 53.0768 68.3646ZM79.5143 64.6477C79.4816 64.8247 78.9518 65.3688 78.4286 65.7621C76.8784 66.8962 74.1052 67.9581 71.2927 68.4629C69.6902 68.7579 68.0812 68.7972 67.6037 68.5612C67.2898 68.4039 67.244 68.2793 67.3552 67.8729C67.5906 67.0273 68.3559 66.1095 69.5463 65.2442C70.1546 64.805 72.6074 63.3104 73.752 62.6811C75.6357 61.6454 77.1662 61.0292 78.1931 60.8784C78.5201 60.8325 78.9126 60.8194 79.0369 60.8784C79.2396 60.957 79.462 61.5536 79.5536 62.2747C79.5928 62.6549 79.5732 64.3396 79.5143 64.6477ZM77.6502 44.8834L77.6306 44.8703C75.7469 43.3626 74.3341 42.6546 74.3341 42.6546C81.7512 34.1065 86.3428 33.6345 86.3428 33.6345C86.8464 34.3228 87.1735 35.1947 87.3501 36.2107C88.3966 42.2154 84.3414 52.7432 84.3414 52.7432C82.6473 49.7212 80.3712 47.0467 77.6502 44.8834Z" fill="#8B2AD3"/>
<path d="M87.3566 36.2108C86.4802 36.0993 82.3399 36.0731 77.6502 44.8834L77.6306 44.8703C75.7469 43.3626 74.3341 42.6546 74.3341 42.6546C81.7513 34.1065 86.3428 33.6345 86.3428 33.6345C86.853 34.3228 87.18 35.2012 87.3566 36.2108Z" fill="#B557FA"/>
<path d="M84.3545 52.7432C82.6474 49.7081 80.3843 47.0401 77.6568 44.8834C82.3465 36.0796 86.4737 36.0993 87.3632 36.2107C88.4032 42.2285 84.3545 52.7432 84.3545 52.7432Z" fill="#5A118F"/>
<path d="M87.5267 36.2501C87.4678 36.237 87.4155 36.2304 87.3566 36.2173L87.5267 36.2501Z" fill="#FF8300"/>
<path d="M45.6269 42.6546C45.6269 42.6546 44.1684 43.3626 42.2127 44.8703C42.2127 44.8703 42.1996 44.8834 42.1931 44.8834C37.3333 36.0665 33.0557 36.0993 32.14 36.2108C32.3166 35.2012 32.6567 34.3097 33.1865 33.6345C33.1931 33.6411 37.9547 34.1131 45.6269 42.6546Z" fill="#B557FA"/>
<path d="M42.2062 44.8834C40.0739 46.5222 37.3595 49.0984 35.273 52.7432C35.273 52.7432 31.0739 42.2285 32.1531 36.2107C33.0623 36.0993 37.3464 36.0796 42.2062 44.8834Z" fill="#5A118F"/>
<path d="M32.1531 36.2107C32.0942 36.2238 32.0288 36.2304 31.9765 36.2435L32.1531 36.2107Z" fill="#FF8300"/>
<path d="M72.9932 58.5839C72.9932 58.5839 69.4024 58.8068 69.8537 55.9945C70.305 53.1823 73.111 52.848 73.8958 52.9594C74.6807 53.0709 77.8203 54.1984 77.2643 56.5583C76.7018 58.9182 75.9169 58.4725 75.4656 58.5839C75.0143 58.6953 72.9932 58.5839 72.9932 58.5839Z" fill="white"/>
<path d="M46.5165 58.5839C46.5165 58.5839 42.9256 58.8068 43.3769 55.9945C43.8283 53.1823 46.6342 52.848 47.4191 52.9594C48.204 53.0709 51.3435 54.1984 50.7876 56.5583C50.2251 58.9182 49.4402 58.4725 48.9889 58.5839C48.531 58.6953 46.5165 58.5839 46.5165 58.5839Z" fill="white"/>
<path d="M112.828 73.4053H150.336L160.769 83.7968H413.573L448.545 48.9644" stroke="#8B2AD3" stroke-width="4" stroke-miterlimit="10"/>
<path d="M77 8L66.7639 18.2594H37.2734L14.2494 41.3649V81.7632L7 89V32.8784C16.6852 23.1421 22.1077 17.7072 31.7929 8H77Z" fill="#8B2AD3"/>
<path d="M382.305 83.9909L388.643 77.6784H406.844L431.676 52.946H444.547L413.572 83.7967H383.67L382.305 83.9909Z" fill="#8B2AD3"/>
<path d="M179.52 52.74C180.333 52.9667 180.973 53.38 181.44 53.98C181.907 54.5667 182.14 55.3133 182.14 56.22C182.14 57.4333 181.68 58.3667 180.76 59.02C179.853 59.6733 178.527 60 176.78 60H170.1V46H176.38C177.98 46 179.213 46.32 180.08 46.96C180.96 47.6 181.4 48.4867 181.4 49.62C181.4 50.3533 181.227 50.9867 180.88 51.52C180.547 52.0533 180.093 52.46 179.52 52.74ZM172.1 47.62V52.1H176.2C177.227 52.1 178.013 51.9133 178.56 51.54C179.12 51.1533 179.4 50.5933 179.4 49.86C179.4 49.1267 179.12 48.5733 178.56 48.2C178.013 47.8133 177.227 47.62 176.2 47.62H172.1ZM176.7 58.38C177.833 58.38 178.687 58.1933 179.26 57.82C179.833 57.4467 180.12 56.86 180.12 56.06C180.12 54.5 178.98 53.72 176.7 53.72H172.1V58.38H176.7ZM194.837 49.4V60H193.017V58.4C192.63 58.9467 192.117 59.3733 191.477 59.68C190.85 59.9733 190.163 60.12 189.417 60.12C188.003 60.12 186.89 59.7333 186.077 58.96C185.263 58.1733 184.857 57.02 184.857 55.5V49.4H186.777V55.28C186.777 56.3067 187.023 57.0867 187.517 57.62C188.01 58.14 188.717 58.4 189.637 58.4C190.65 58.4 191.45 58.0933 192.037 57.48C192.623 56.8667 192.917 56 192.917 54.88V49.4H194.837ZM207.872 49.4L202.732 61.06C202.279 62.14 201.745 62.9 201.132 63.34C200.532 63.78 199.805 64 198.952 64C198.432 64 197.925 63.9133 197.432 63.74C196.952 63.58 196.552 63.34 196.232 63.02L197.052 61.58C197.599 62.1 198.232 62.36 198.952 62.36C199.419 62.36 199.805 62.2333 200.112 61.98C200.432 61.74 200.719 61.32 200.972 60.72L201.312 59.98L196.632 49.4H198.632L202.332 57.88L205.992 49.4H207.872ZM218.915 46.62C217.768 46.62 217.195 47.24 217.195 48.48V49.4H220.275V50.98H217.235V60H215.315V50.98H213.515V49.4H215.315V48.46C215.315 47.4067 215.622 46.5733 216.235 45.96C216.848 45.3467 217.708 45.04 218.815 45.04C219.242 45.04 219.642 45.0933 220.015 45.2C220.388 45.3067 220.708 45.46 220.975 45.66L220.395 47.12C219.955 46.7867 219.462 46.62 218.915 46.62ZM225.527 51.18C225.861 50.5667 226.354 50.1 227.007 49.78C227.661 49.46 228.454 49.3 229.387 49.3V51.16C229.281 51.1467 229.134 51.14 228.947 51.14C227.907 51.14 227.087 51.4533 226.487 52.08C225.901 52.6933 225.607 53.5733 225.607 54.72V60H223.687V49.4H225.527V51.18ZM236.196 60.12C235.143 60.12 234.196 59.8867 233.356 59.42C232.516 58.9533 231.856 58.3133 231.376 57.5C230.909 56.6733 230.676 55.74 230.676 54.7C230.676 53.66 230.909 52.7333 231.376 51.92C231.856 51.0933 232.516 50.4533 233.356 50C234.196 49.5333 235.143 49.3 236.196 49.3C237.249 49.3 238.189 49.5333 239.016 50C239.856 50.4533 240.509 51.0933 240.976 51.92C241.456 52.7333 241.696 53.66 241.696 54.7C241.696 55.74 241.456 56.6733 240.976 57.5C240.509 58.3133 239.856 58.9533 239.016 59.42C238.189 59.8867 237.249 60.12 236.196 60.12ZM236.196 58.44C236.876 58.44 237.483 58.2867 238.016 57.98C238.563 57.66 238.989 57.22 239.296 56.66C239.603 56.0867 239.756 55.4333 239.756 54.7C239.756 53.9667 239.603 53.32 239.296 52.76C238.989 52.1867 238.563 51.7467 238.016 51.44C237.483 51.1333 236.876 50.98 236.196 50.98C235.516 50.98 234.903 51.1333 234.356 51.44C233.823 51.7467 233.396 52.1867 233.076 52.76C232.769 53.32 232.616 53.9667 232.616 54.7C232.616 55.4333 232.769 56.0867 233.076 56.66C233.396 57.22 233.823 57.66 234.356 57.98C234.903 58.2867 235.516 58.44 236.196 58.44ZM257.611 49.3C258.945 49.3 259.998 49.6867 260.771 50.46C261.558 51.2333 261.951 52.38 261.951 53.9V60H260.031V54.12C260.031 53.0933 259.791 52.32 259.311 51.8C258.845 51.28 258.171 51.02 257.291 51.02C256.318 51.02 255.545 51.3267 254.971 51.94C254.398 52.54 254.111 53.4067 254.111 54.54V60H252.191V54.12C252.191 53.0933 251.951 52.32 251.471 51.8C251.005 51.28 250.331 51.02 249.451 51.02C248.478 51.02 247.705 51.3267 247.131 51.94C246.558 52.54 246.271 53.4067 246.271 54.54V60H244.351V49.4H246.191V50.98C246.578 50.4333 247.085 50.02 247.711 49.74C248.338 49.4467 249.051 49.3 249.851 49.3C250.678 49.3 251.411 49.4667 252.051 49.8C252.691 50.1333 253.185 50.62 253.531 51.26C253.931 50.6467 254.485 50.1667 255.191 49.82C255.911 49.4733 256.718 49.3 257.611 49.3ZM275.215 60.16C274.162 60.16 273.142 60 272.155 59.68C271.182 59.3467 270.415 58.92 269.855 58.4L270.595 56.84C271.128 57.32 271.808 57.7133 272.635 58.02C273.475 58.3133 274.335 58.46 275.215 58.46C276.375 58.46 277.242 58.2667 277.815 57.88C278.388 57.48 278.675 56.9533 278.675 56.3C278.675 55.82 278.515 55.4333 278.195 55.14C277.888 54.8333 277.502 54.6 277.035 54.44C276.582 54.28 275.935 54.1 275.095 53.9C274.042 53.6467 273.188 53.3933 272.535 53.14C271.895 52.8867 271.342 52.5 270.875 51.98C270.422 51.4467 270.195 50.7333 270.195 49.84C270.195 49.0933 270.388 48.42 270.775 47.82C271.175 47.22 271.775 46.74 272.575 46.38C273.375 46.02 274.368 45.84 275.555 45.84C276.382 45.84 277.195 45.9467 277.995 46.16C278.795 46.3733 279.482 46.68 280.055 47.08L279.395 48.68C278.808 48.3067 278.182 48.0267 277.515 47.84C276.848 47.64 276.195 47.54 275.555 47.54C274.422 47.54 273.568 47.7467 272.995 48.16C272.435 48.5733 272.155 49.1067 272.155 49.76C272.155 50.24 272.315 50.6333 272.635 50.94C272.955 51.2333 273.348 51.4667 273.815 51.64C274.295 51.8 274.942 51.9733 275.755 52.16C276.808 52.4133 277.655 52.6667 278.295 52.92C278.935 53.1733 279.482 53.56 279.935 54.08C280.402 54.6 280.635 55.3 280.635 56.18C280.635 56.9133 280.435 57.5867 280.035 58.2C279.635 58.8 279.028 59.28 278.215 59.64C277.402 59.9867 276.402 60.16 275.215 60.16ZM288.937 49.3C290.284 49.3 291.35 49.6933 292.137 50.48C292.937 51.2533 293.337 52.3933 293.337 53.9V60H291.417V54.12C291.417 53.0933 291.17 52.32 290.677 51.8C290.184 51.28 289.477 51.02 288.557 51.02C287.517 51.02 286.697 51.3267 286.097 51.94C285.497 52.54 285.197 53.4067 285.197 54.54V60H283.277V45.16H285.197V50.9C285.597 50.3933 286.117 50 286.757 49.72C287.41 49.44 288.137 49.3 288.937 49.3ZM296.89 49.4H298.81V60H296.89V49.4ZM297.85 47.36C297.477 47.36 297.164 47.24 296.91 47C296.67 46.76 296.55 46.4667 296.55 46.12C296.55 45.7733 296.67 45.48 296.91 45.24C297.164 44.9867 297.477 44.86 297.85 44.86C298.224 44.86 298.53 44.98 298.77 45.22C299.024 45.4467 299.15 45.7333 299.15 46.08C299.15 46.44 299.024 46.7467 298.77 47C298.53 47.24 298.224 47.36 297.85 47.36ZM308.096 49.3C309.123 49.3 310.043 49.5267 310.856 49.98C311.67 50.4333 312.303 51.0667 312.756 51.88C313.223 52.6933 313.456 53.6333 313.456 54.7C313.456 55.7667 313.223 56.7133 312.756 57.54C312.303 58.3533 311.67 58.9867 310.856 59.44C310.043 59.8933 309.123 60.12 308.096 60.12C307.31 60.12 306.59 59.9667 305.936 59.66C305.283 59.3533 304.743 58.9067 304.316 58.32V60H302.476V45.16H304.396V51C304.823 50.44 305.356 50.02 305.996 49.74C306.636 49.4467 307.336 49.3 308.096 49.3ZM307.936 58.44C308.616 58.44 309.223 58.2867 309.756 57.98C310.303 57.66 310.73 57.22 311.036 56.66C311.356 56.0867 311.516 55.4333 311.516 54.7C311.516 53.9667 311.356 53.32 311.036 52.76C310.73 52.1867 310.303 51.7467 309.756 51.44C309.223 51.1333 308.616 50.98 307.936 50.98C307.27 50.98 306.663 51.1333 306.116 51.44C305.57 51.7467 305.143 52.1867 304.836 52.76C304.53 53.32 304.376 53.9667 304.376 54.7C304.376 55.4333 304.53 56.0867 304.836 56.66C305.143 57.22 305.57 57.66 306.116 57.98C306.663 58.2867 307.27 58.44 307.936 58.44ZM319.871 49.3C321.338 49.3 322.458 49.66 323.231 50.38C324.018 51.1 324.411 52.1733 324.411 53.6V60H322.591V58.6C322.271 59.0933 321.811 59.4733 321.211 59.74C320.625 59.9933 319.925 60.12 319.111 60.12C317.925 60.12 316.971 59.8333 316.251 59.26C315.545 58.6867 315.191 57.9333 315.191 57C315.191 56.0667 315.531 55.32 316.211 54.76C316.891 54.1867 317.971 53.9 319.451 53.9H322.491V53.52C322.491 52.6933 322.251 52.06 321.771 51.62C321.291 51.18 320.585 50.96 319.651 50.96C319.025 50.96 318.411 51.0667 317.811 51.28C317.211 51.48 316.705 51.7533 316.291 52.1L315.491 50.66C316.038 50.22 316.691 49.8867 317.451 49.66C318.211 49.42 319.018 49.3 319.871 49.3ZM319.431 58.64C320.165 58.64 320.798 58.48 321.331 58.16C321.865 57.8267 322.251 57.36 322.491 56.76V55.28H319.531C317.905 55.28 317.091 55.8267 317.091 56.92C317.091 57.4533 317.298 57.8733 317.711 58.18C318.125 58.4867 318.698 58.64 319.431 58.64ZM332.325 60.16C331.271 60.16 330.251 60 329.265 59.68C328.291 59.3467 327.525 58.92 326.965 58.4L327.705 56.84C328.238 57.32 328.918 57.7133 329.745 58.02C330.585 58.3133 331.445 58.46 332.325 58.46C333.485 58.46 334.351 58.2667 334.925 57.88C335.498 57.48 335.785 56.9533 335.785 56.3C335.785 55.82 335.625 55.4333 335.305 55.14C334.998 54.8333 334.611 54.6 334.145 54.44C333.691 54.28 333.045 54.1 332.205 53.9C331.151 53.6467 330.298 53.3933 329.645 53.14C329.005 52.8867 328.451 52.5 327.985 51.98C327.531 51.4467 327.305 50.7333 327.305 49.84C327.305 49.0933 327.498 48.42 327.885 47.82C328.285 47.22 328.885 46.74 329.685 46.38C330.485 46.02 331.478 45.84 332.665 45.84C333.491 45.84 334.305 45.9467 335.105 46.16C335.905 46.3733 336.591 46.68 337.165 47.08L336.505 48.68C335.918 48.3067 335.291 48.0267 334.625 47.84C333.958 47.64 333.305 47.54 332.665 47.54C331.531 47.54 330.678 47.7467 330.105 48.16C329.545 48.5733 329.265 49.1067 329.265 49.76C329.265 50.24 329.425 50.6333 329.745 50.94C330.065 51.2333 330.458 51.4667 330.925 51.64C331.405 51.8 332.051 51.9733 332.865 52.16C333.918 52.4133 334.765 52.6667 335.405 52.92C336.045 53.1733 336.591 53.56 337.045 54.08C337.511 54.6 337.745 55.3 337.745 56.18C337.745 56.9133 337.545 57.5867 337.145 58.2C336.745 58.8 336.138 59.28 335.325 59.64C334.511 59.9867 333.511 60.16 332.325 60.16ZM356.231 49.4L352.271 60H350.431L347.371 51.96L344.271 60H342.431L338.491 49.4H340.311L343.391 57.84L346.591 49.4H348.211L351.351 57.88L354.511 49.4H356.231ZM361.707 49.3C363.174 49.3 364.294 49.66 365.067 50.38C365.854 51.1 366.247 52.1733 366.247 53.6V60H364.427V58.6C364.107 59.0933 363.647 59.4733 363.047 59.74C362.461 59.9933 361.761 60.12 360.947 60.12C359.761 60.12 358.807 59.8333 358.087 59.26C357.381 58.6867 357.027 57.9333 357.027 57C357.027 56.0667 357.367 55.32 358.047 54.76C358.727 54.1867 359.807 53.9 361.287 53.9H364.327V53.52C364.327 52.6933 364.087 52.06 363.607 51.62C363.127 51.18 362.421 50.96 361.487 50.96C360.861 50.96 360.247 51.0667 359.647 51.28C359.047 51.48 358.541 51.7533 358.127 52.1L357.327 50.66C357.874 50.22 358.527 49.8867 359.287 49.66C360.047 49.42 360.854 49.3 361.707 49.3ZM361.267 58.64C362.001 58.64 362.634 58.48 363.167 58.16C363.701 57.8267 364.087 57.36 364.327 56.76V55.28H361.367C359.741 55.28 358.927 55.8267 358.927 56.92C358.927 57.4533 359.134 57.8733 359.547 58.18C359.961 58.4867 360.534 58.64 361.267 58.64ZM375.42 49.3C376.447 49.3 377.367 49.5267 378.18 49.98C378.994 50.4333 379.627 51.0667 380.08 51.88C380.547 52.6933 380.78 53.6333 380.78 54.7C380.78 55.7667 380.547 56.7133 380.08 57.54C379.627 58.3533 378.994 58.9867 378.18 59.44C377.367 59.8933 376.447 60.12 375.42 60.12C374.66 60.12 373.96 59.9733 373.32 59.68C372.694 59.3867 372.16 58.96 371.72 58.4V63.88H369.8V49.4H371.64V51.08C372.067 50.4933 372.607 50.0533 373.26 49.76C373.914 49.4533 374.634 49.3 375.42 49.3ZM375.26 58.44C375.94 58.44 376.547 58.2867 377.08 57.98C377.627 57.66 378.054 57.22 378.36 56.66C378.68 56.0867 378.84 55.4333 378.84 54.7C378.84 53.9667 378.68 53.32 378.36 52.76C378.054 52.1867 377.627 51.7467 377.08 51.44C376.547 51.1333 375.94 50.98 375.26 50.98C374.594 50.98 373.987 51.14 373.44 51.46C372.907 51.7667 372.48 52.2 372.16 52.76C371.854 53.32 371.7 53.9667 371.7 54.7C371.7 55.4333 371.854 56.0867 372.16 56.66C372.467 57.22 372.894 57.66 373.44 57.98C373.987 58.2867 374.594 58.44 375.26 58.44Z" fill="white"/>
</g>
<defs>
<clipPath id="clip0_0_4568">
<rect width="449" height="123" fill="white"/>
</clipPath>
</defs>
</svg>
